<svg width="16" height="16" fill="none" xmlns="http://www.w3.org/2000/svg"><path fill-rule="evenodd" clip-rule="evenodd" d="M8 .5C3.86.5.5 3.86.5 8c0 4.14 3.36 7.5 7.5 7.5 4.14 0 7.5-3.36 7.5-7.5C15.5 3.86 12.14.5 8 .5zM4.303 12.71c.322-.675 2.287-1.335 3.697-1.335 1.41 0 3.383.66 3.698 1.335A5.92 5.92 0 0 1 8 14a5.92 5.92 0 0 1-3.697-1.29zM8 9.875c1.095 0 3.697.443 4.77 1.748A5.962 5.962 0 0 0 14 8c0-3.308-2.693-6-6-6-3.308 0-6 2.692-6 6 0 1.365.465 2.617 1.23 3.623C4.303 10.318 6.905 9.875 8 9.875zM8 3.5a2.618 2.618 0 0 0-2.625 2.625A2.618 2.618 0 0 0 8 8.75a2.618 2.618 0 0 0 2.625-2.625A2.618 2.618 0 0 0 8 3.5zM6.875 6.125c0 .622.503 1.125 1.125 1.125.623 0 1.125-.503 1.125-1.125S8.623 5 8 5c-.622 0-1.125.503-1.125 1.125z" fill="#000"/></svg>