<svg width="16" height="14" fill="none" xmlns="http://www.w3.org/2000/svg"><path fill-rule="evenodd" clip-rule="evenodd" d="M8 1.687A4.491 4.491 0 0 1 11.375.119 4.085 4.085 0 0 1 15.5 4.244c0 2.833-2.546 5.141-6.403 8.639l-.01.009-1.087.99-1.088-.983-.03-.027C3.038 9.377.5 7.072.5 4.244A4.085 4.085 0 0 1 4.625.12C5.93.12 7.183.727 8 1.687zm0 10.17l.075-.075C11.645 8.549 14 6.412 14 4.244c0-1.5-1.125-2.625-2.625-2.625-1.155 0-2.28.743-2.67 1.77H7.303C6.905 2.362 5.78 1.62 4.625 1.62 3.125 1.62 2 2.744 2 4.244c0 2.168 2.355 4.305 5.925 7.538l.075.075z" fill="#000"/></svg>