<svg fill="none" height="18" width="18" xmlns="http://www.w3.org/2000/svg"><path clip-rule="evenodd" d="m13.722 8.977c-.255.466-.75.773-1.312.773h-5.588l-.825 1.5h9v1.5h-9c-1.14 0-1.86-1.223-1.312-2.227l1.012-1.83-2.7-5.693h-1.5v-1.5h2.453l.705 1.5h11.1c.57 0 .93.615.652 1.11zm.758-4.477h-9.113l1.778 3.75h5.265zm-8.483 9c-.825 0-1.492.675-1.492 1.5s.667 1.5 1.492 1.5 1.5-.675 1.5-1.5-.675-1.5-1.5-1.5zm6.008 1.5c0-.825.667-1.5 1.492-1.5s1.5.675 1.5 1.5-.675 1.5-1.5 1.5a1.498 1.498 0 0 1 -1.492-1.5z" fill="#000" fill-rule="evenodd"/></svg>