<svg fill="none" height="63" width="64" xmlns="http://www.w3.org/2000/svg" xmlns:xlink="http://www.w3.org/1999/xlink"><filter id="a" color-interpolation-filters="sRGB" filterUnits="userSpaceOnUse" height="62.483" width="62.483" x=".759" y=".374"><feFlood flood-opacity="0" result="BackgroundImageFix"/><feColorMatrix in="SourceAlpha" result="hardAlpha" values="0 0 0 0 0 0 0 0 0 0 0 0 0 0 0 0 0 0 127 0"/><feOffset dy="2.615"/><feGaussianBlur stdDeviation="3.621"/><feComposite in2="hardAlpha" operator="out"/><feColorMatrix values="0 0 0 0 0 0 0 0 0 0 0 0 0 0 0 0 0 0 0.15 0"/><feBlend in2="BackgroundImageFix" result="effect1_dropShadow_3096_318552"/><feBlend in="SourceGraphic" in2="effect1_dropShadow_3096_318552" result="shape"/></filter><g filter="url(#a)"><circle cx="32" cy="29" fill="#fff" r="23" stroke="#000" stroke-width="2"/><path d="m38 23h-2c0-2.21-1.79-4-4-4s-4 1.79-4 4h-2c-1.1 0-2 .9-2 2v12c0 1.1.9 2 2 2h12c1.1 0 2-.9 2-2v-12c0-1.1-.9-2-2-2zm-6-2c1.1 0 2 .9 2 2h-4c0-1.1.9-2 2-2zm6 16h-12v-12h2v2c0 .55.45 1 1 1s1-.45 1-1v-2h4v2c0 .55.45 1 1 1s1-.45 1-1v-2h2z" fill="#000"/></g></svg>