<svg width="21" height="18" viewBox="0 0 21 18" fill="none" xmlns="http://www.w3.org/2000/svg">
    <path d="M14.95 4.8V1.5H6.05V4.8H4.55V0H16.45V4.8H14.95ZM2 6.3C2 6.3 2.10833 6.3 2.325 6.3C2.54167 6.3 2.81667 6.3 3.15 6.3H17.85C18.1833 6.3 18.4583 6.3 18.675 6.3C18.8917 6.3 19 6.3 19 6.3H16.45H4.55H2ZM16.975 8.675C17.175 8.675 17.35 8.6 17.5 8.45C17.65 8.3 17.725 8.125 17.725 7.925C17.725 7.725 17.65 7.55 17.5 7.4C17.35 7.25 17.175 7.175 16.975 7.175C16.775 7.175 16.6 7.25 16.45 7.4C16.3 7.55 16.225 7.725 16.225 7.925C16.225 8.125 16.3 8.3 16.45 8.45C16.6 8.6 16.775 8.675 16.975 8.675ZM14.95 16.5V11.7H6.05V16.5H14.95ZM16.45 18H4.55V13.6H0.5V7.45C0.5 6.7 0.754167 6.07083 1.2625 5.5625C1.77083 5.05417 2.4 4.8 3.15 4.8H17.85C18.6 4.8 19.2292 5.05417 19.7375 5.5625C20.2458 6.07083 20.5 6.7 20.5 7.45V13.6H16.45V18ZM19 12.1V7.45C19 7.11667 18.8917 6.84167 18.675 6.625C18.4583 6.40833 18.1833 6.3 17.85 6.3H3.15C2.81667 6.3 2.54167 6.40833 2.325 6.625C2.10833 6.84167 2 7.11667 2 7.45V12.1H4.55V10.2H16.45V12.1H19Z" fill="black"/>
</svg>