<svg width="64" height="64" fill="none" xmlns="http://www.w3.org/2000/svg"><g filter="url(#filter0_d_3096_318552)"><circle cx="32" cy="32" r="23" fill="#fff" stroke="#000" stroke-width="2"/><svg x="19" y="19" width="22" height="23"><path d="M18 2a3 3 0 0 0-3 3 3 3 0 0 0 .055.56L7.939 9.71A3 3 0 0 0 6 9a3 3 0 0 0-3 3 3 3 0 0 0 3 3 3 3 0 0 0 1.936-.713l7.119 4.152A3 3 0 0 0 15 19a3 3 0 0 0 3 3 3 3 0 0 0 3-3 3 3 0 0 0-3-3 3 3 0 0 0-1.938.713L8.945 12.56A3 3 0 0 0 9 12a3 3 0 0 0-.055-.56l7.116-4.15A3 3 0 0 0 18 8a3 3 0 0 0 3-3 3 3 0 0 0-3-3z" fill="#000"/></svg></g><defs><filter id="filter0_d_3096_318552" x=".759" y=".374" width="62.483" height="62.483" filterUnits="userSpaceOnUse" color-interpolation-filters="sRGB"><feFlood flood-opacity="0" result="BackgroundImageFix"/><feColorMatrix in="SourceAlpha" values="0 0 0 0 0 0 0 0 0 0 0 0 0 0 0 0 0 0 127 0" result="hardAlpha"/><feOffset dy="2.615"/><feGaussianBlur stdDeviation="3.621"/><feComposite in2="hardAlpha" operator="out"/><feColorMatrix values="0 0 0 0 0 0 0 0 0 0 0 0 0 0 0 0 0 0 0.15 0"/><feBlend in2="BackgroundImageFix" result="effect1_dropShadow_3096_318552"/><feBlend in="SourceGraphic" in2="effect1_dropShadow_3096_318552" result="shape"/></filter></defs></svg>