<svg width="21" height="20" viewBox="0 0 21 20" fill="none" xmlns="http://www.w3.org/2000/svg">
    <path d="M14.175 14.825L15.3 13.7L11.325 9.7V4.675H9.825V10.3L14.175 14.825ZM10.5 20C9.13333 20 7.84167 19.7375 6.625 19.2125C5.40833 18.6875 4.34583 17.9708 3.4375 17.0625C2.52917 16.1542 1.8125 15.0917 1.2875 13.875C0.7625 12.6583 0.5 11.3667 0.5 10C0.5 8.63333 0.7625 7.34167 1.2875 6.125C1.8125 4.90833 2.52917 3.84583 3.4375 2.9375C4.34583 2.02917 5.40833 1.3125 6.625 0.7875C7.84167 0.2625 9.13333 0 10.5 0C11.8667 0 13.1583 0.2625 14.375 0.7875C15.5917 1.3125 16.6542 2.02917 17.5625 2.9375C18.4708 3.84583 19.1875 4.90833 19.7125 6.125C20.2375 7.34167 20.5 8.63333 20.5 10C20.5 11.3667 20.2375 12.6583 19.7125 13.875C19.1875 15.0917 18.4708 16.1542 17.5625 17.0625C16.6542 17.9708 15.5917 18.6875 14.375 19.2125C13.1583 19.7375 11.8667 20 10.5 20ZM10.5 18.5C12.8333 18.5 14.8333 17.6667 16.5 16C18.1667 14.3333 19 12.3333 19 10C19 7.66667 18.1667 5.66667 16.5 4C14.8333 2.33333 12.8333 1.5 10.5 1.5C8.16667 1.5 6.16667 2.33333 4.5 4C2.83333 5.66667 2 7.66667 2 10C2 12.3333 2.83333 14.3333 4.5 16C6.16667 17.6667 8.16667 18.5 10.5 18.5Z" fill="black"/>
</svg>