<svg fill="none" height="14" width="15" xmlns="http://www.w3.org/2000/svg"><path d="m1.687 12.1.893.373v-6.02l-1.62 3.907c-.273.68.053 1.46.727 1.74zm13-2.466-3.307-7.98a1.342 1.342 0 0 0 -1.207-.82c-.173 0-.353.026-.526.1l-4.914 2.032a1.333 1.333 0 0 0 -.72 1.733l3.307 7.98a1.332 1.332 0 0 0 1.733.72l4.907-2.033a1.33 1.33 0 0 0 .727-1.734zm-9.434-4.8a.669.669 0 0 1 -.666-.667c0-.367.3-.667.666-.667.367 0 .667.3.667.667s-.3.667-.667.667zm-1.333 7.332c0 .733.6 1.333 1.333 1.333h.967l-2.3-5.56z" fill="#000"/></svg>