<svg width="21" height="20" viewBox="0 0 21 20" fill="none" xmlns="http://www.w3.org/2000/svg">
<path d="M9.65168 17.5315L9.65024 17.5302C6.92641 15.0535 4.74667 13.069 3.23583 11.2168C1.73656 9.37885 1 7.79289 1 6.13058C1 3.43748 3.09585 1.33984 5.775 1.33984C7.2982 1.33984 8.77652 2.05575 9.73778 3.18764L10.5 4.08516L11.2622 3.18764C12.2235 2.05575 13.7018 1.33984 15.225 1.33984C17.9042 1.33984 20 3.43748 20 6.13058C20 7.7929 19.2634 9.37891 17.764 11.2184C16.2531 13.0719 14.0735 15.0588 11.3499 17.5406C11.3496 17.5409 11.3493 17.5412 11.349 17.5414L10.5026 18.3082L9.65168 17.5315Z" fill="white" stroke="#5F5F5F" stroke-width="2"/>
</svg>
