<svg fill="none" height="10" width="99" xmlns="http://www.w3.org/2000/svg"><path d="m96.882 9.044c.107 0 .278.018.278-.141 0-.115-.108-.124-.198-.124h-.215v.265zm.359.424h-.117l-.224-.353h-.17v.353h-.1v-.768h.341c.063 0 .135 0 .189.044.054.035.09.097.09.159 0 .15-.108.203-.243.212zm-.934-.38c0 .327.26.582.593.582a.581.581 0 1 0 0-1.164.593.593 0 0 0 -.593.582zm1.284 0c0 .38-.314.68-.691.68a.68.68 0 0 1 -.692-.68c0-.38.315-.68.7-.68a.69.69 0 0 1 .683.68zm-22.384-1.782h-1.373v-1.412h1.39c.548 0 1.05.177 1.05.715-.008.415-.358.697-1.067.697zm-1.373-4.685h1.157c.691 0 1.032.23 1.032.653 0 .361-.197.68-1.014.68h-1.166v-1.334h-.01zm3.868 2.126c1.032-.353 1.48-1.04 1.49-2.162 0-1.72-1.58-2.355-3.33-2.355h-5.16v9.476h5.106c1.939 0 3.707-.75 3.707-2.656-.01-1.297-.575-1.95-1.813-2.303zm7.126 2.56h-1.373v-1.414h1.39c.548 0 1.051.177 1.051.715-.009.415-.368.697-1.068.697zm-1.382-4.687h1.158c.69 0 1.032.23 1.032.653 0 .361-.198.68-1.014.68h-1.167v-1.333h-.01zm3.877 2.126c1.032-.353 1.481-1.04 1.481-2.162 0-1.72-1.58-2.355-3.33-2.355h-5.16v9.476h5.106c1.93 0 3.707-.75 3.707-2.656-.009-1.297-.565-1.95-1.804-2.303zm1.31-4.516 3.51 5.647v3.83h3.222v-3.867l3.635-5.61h-3.33l-1.66 2.76-1.653-2.76h-3.725zm-35.936 0h3.222v6.803h3.904v2.673h-7.126zm14.143 4.72c0-1.138-.861-2.065-1.93-2.065-1.058 0-1.929.927-1.929 2.065 0 1.147.862 2.065 1.93 2.065s1.93-.927 1.93-2.065zm3.115 0c0 2.735-2.253 4.95-5.035 4.95-2.783 0-5.035-2.215-5.035-4.95s2.252-4.95 5.035-4.95c2.773-.009 5.035 2.215 5.035 4.95zm-44.627 2.356h-1.373v-1.412h1.39c.548 0 1.051.177 1.051.715-.009.406-.368.697-1.068.697zm-1.373-4.685h1.158c.69 0 1.032.23 1.032.653 0 .361-.198.68-1.014.68h-1.167l-.01-1.333zm3.868 2.126c1.032-.353 1.481-1.04 1.481-2.162 0-1.72-1.58-2.355-3.33-2.355h-5.16v9.476h5.106c1.93 0 3.707-.75 3.707-2.656 0-1.306-.565-1.95-1.804-2.303zm-10.87.194c0-1.138-.86-2.065-1.92-2.065-1.068 0-1.93.927-1.93 2.065s.862 2.065 1.93 2.065c1.06.009 1.92-.918 1.92-2.065zm3.115 0c0 2.735-2.253 4.959-5.035 4.959s-5.035-2.215-5.035-4.95 2.253-4.95 5.035-4.95c2.782-.009 5.035 2.206 5.035 4.941zm14.872 2.365h-1.373v-1.412h1.391c.548 0 1.05.177 1.05.715-.009.406-.359.697-1.068.697zm-1.373-4.685h1.158c.691 0 1.032.23 1.032.653 0 .361-.197.68-1.014.68h-1.167zm3.868 2.126c1.032-.353 1.481-1.04 1.481-2.162 0-1.72-1.58-2.355-3.33-2.355h-5.16v9.476h5.107c1.938 0 3.706-.75 3.706-2.656 0-1.306-.565-1.95-1.804-2.303zm8.356-4.517-1.669 2.76-1.642-2.76h-3.725l3.51 5.647v3.82h3.221v-3.864l3.626-5.603h-3.32zm-39.805-.027v3.503h-2.764v-3.503h-3.222v9.476h3.222v-3.502h2.764v3.502h3.224v-9.476z" fill="#fff"/></svg>