<svg fill="none" height="32" width="32" xmlns="http://www.w3.org/2000/svg" xmlns:xlink="http://www.w3.org/1999/xlink"><filter id="a" color-interpolation-filters="sRGB" filterUnits="userSpaceOnUse" height="32" width="32" x="0" y="0"><feFlood flood-opacity="0" result="BackgroundImageFix"/><feColorMatrix in="SourceAlpha" result="hardAlpha" values="0 0 0 0 0 0 0 0 0 0 0 0 0 0 0 0 0 0 127 0"/><feOffset dy="4"/><feGaussianBlur stdDeviation="2"/><feComposite in2="hardAlpha" operator="out"/><feColorMatrix values="0 0 0 0 0 0 0 0 0 0 0 0 0 0 0 0 0 0 0.15 0"/><feBlend in2="BackgroundImageFix" result="effect1_dropShadow_9558_380218"/><feBlend in="SourceGraphic" in2="effect1_dropShadow_9558_380218" result="shape"/></filter><g filter="url(#a)"><circle cx="16" cy="12" fill="#000" r="12"/><circle cx="16" cy="12" r="11.688" stroke="#000" stroke-width=".625"/></g><path d="m12.72 6.217a.4.4 0 0 0 -.565 0l-2.546 2.546a.4.4 0 1 0 .566.565l2.262-2.262 2.263 2.262a.4.4 0 0 0 .566-.565zm.117 11.283v-11h-.8v11zm6.443.283a.4.4 0 0 0 .565 0l2.546-2.546a.4.4 0 0 0 -.566-.565l-2.262 2.262-2.263-2.262a.4.4 0 0 0 -.566.565zm-.117-11.283v11h.8v-11z" fill="#fff"/></svg>