<svg width="100" height="100" viewBox="0 0 100 100" fill="none" xmlns="http://www.w3.org/2000/svg">
<ellipse cx="49.8244" cy="50.3529" rx="49.8244" ry="49.6478" fill="#000C59"/>
<g clip-path="url(#clip0_9205_425864)">
<path d="M50.1766 8.33398C27.2574 8.33398 8.65625 27.0006 8.65625 50.0006C8.65625 73.0005 27.2574 91.6672 50.1766 91.6672C73.0958 91.6672 91.6969 73.0005 91.6969 50.0006C91.6969 27.0006 73.0958 8.33398 50.1766 8.33398ZM50.1766 20.834C57.069 20.834 62.6327 26.4173 62.6327 33.3339C62.6327 40.2506 57.069 45.8339 50.1766 45.8339C43.2842 45.8339 37.7205 40.2506 37.7205 33.3339C37.7205 26.4173 43.2842 20.834 50.1766 20.834ZM50.1766 80.0005C39.7965 80.0005 30.6205 74.6672 25.2644 66.5839C25.3889 58.2922 41.8725 53.7506 50.1766 53.7506C58.4391 53.7506 74.9642 58.2922 75.0888 66.5839C69.7327 74.6672 60.5567 80.0005 50.1766 80.0005Z" fill="white"/>
</g>
<defs>
<clipPath id="clip0_9205_425864">
<rect width="99.6488" height="99.9998" fill="white" transform="translate(0.351562)"/>
</clipPath>
</defs>
</svg>
