<svg width="628" height="400" viewBox="0 0 628 400" fill="none" xmlns="http://www.w3.org/2000/svg">
    <rect width="628" height="400" rx="20" fill="#5F5F5F"/>
    <rect y="277" width="628" height="56" fill="#EDEDED"/>
    <rect x="217" y="347" width="8" height="40" fill="#EDEDED"/>
    <rect x="363" y="347" width="8" height="40" fill="#EDEDED"/>
    <rect x="391" y="347" width="8" height="40" fill="#EDEDED"/>
    <rect x="235" y="347" width="30" height="40" fill="#EDEDED"/>
    <rect x="325" y="347" width="30" height="40" fill="#EDEDED"/>
    <rect x="273" y="347" width="7" height="40" fill="#EDEDED"/>
    <rect x="408" y="347" width="3" height="40" fill="#EDEDED"/>
    <rect x="298" y="347" width="11" height="40" fill="#EDEDED"/>
    <rect x="283" y="347" width="5" height="40" fill="#EDEDED"/>
    <rect x="312" y="347" width="5" height="40" fill="#EDEDED"/>
    <rect x="373" y="347" width="4" height="40" fill="#EDEDED"/>
    <rect x="379" y="347" width="4" height="40" fill="#EDEDED"/>
    <path d="M33.3125 225.547C33.3125 223.901 33.6042 222.37 34.1875 220.953C34.7812 219.526 35.599 218.292 36.6406 217.25C37.6823 216.198 38.9115 215.375 40.3281 214.781C41.7552 214.188 43.3073 213.891 44.9844 213.891C45.6719 213.891 46.3177 213.938 46.9219 214.031C47.5365 214.115 48.1042 214.229 48.625 214.375C49.1562 214.521 49.6406 214.688 50.0781 214.875C50.5156 215.062 50.9115 215.255 51.2656 215.453C52.0885 215.911 52.7917 216.427 53.375 217L51.3906 220.078C50.8698 219.63 50.2865 219.229 49.6406 218.875C49.0885 218.573 48.4323 218.297 47.6719 218.047C46.9219 217.797 46.0938 217.672 45.1875 217.672C43.9896 217.672 42.9167 217.88 41.9688 218.297C41.0312 218.714 40.2344 219.281 39.5781 220C38.9219 220.708 38.4219 221.536 38.0781 222.484C37.7344 223.422 37.5625 224.422 37.5625 225.484C37.5625 226.568 37.7396 227.599 38.0938 228.578C38.4479 229.557 38.9531 230.422 39.6094 231.172C40.276 231.911 41.0781 232.505 42.0156 232.953C42.9635 233.391 44.0312 233.609 45.2188 233.609C45.7083 233.609 46.1771 233.568 46.625 233.484C47.0833 233.401 47.5104 233.292 47.9062 233.156C48.3021 233.021 48.6719 232.87 49.0156 232.703C49.3698 232.526 49.6927 232.349 49.9844 232.172C50.6615 231.755 51.2708 231.276 51.8125 230.734L53.9844 233.703C53.3281 234.391 52.5625 235.005 51.6875 235.547C51.3125 235.776 50.8906 236.005 50.4219 236.234C49.9531 236.453 49.4427 236.651 48.8906 236.828C48.3385 236.995 47.7396 237.13 47.0938 237.234C46.4583 237.339 45.7812 237.391 45.0625 237.391C43.9062 237.391 42.8125 237.255 41.7812 236.984C40.75 236.703 39.7969 236.312 38.9219 235.812C38.0573 235.302 37.276 234.693 36.5781 233.984C35.8906 233.266 35.3021 232.469 34.8125 231.594C34.3333 230.719 33.9635 229.771 33.7031 228.75C33.4427 227.729 33.3125 226.661 33.3125 225.547ZM69.0781 231.172H61.1094L59.1875 237H54.9375L62.9375 214.281H67.2656L75.2656 237H71L69.0781 231.172ZM65.0781 218.219C64.9844 218.656 64.8802 219.083 64.7656 219.5C64.6719 219.865 64.5677 220.25 64.4531 220.656C64.349 221.052 64.2396 221.411 64.125 221.734L62.1094 227.812H68.0625L66.0469 221.734C65.9323 221.411 65.8229 221.052 65.7188 220.656C65.6146 220.25 65.5208 219.865 65.4375 219.5C65.3333 219.083 65.2344 218.656 65.1406 218.219H65.0781ZM78.1875 214.281H85.5156C86.1302 214.281 86.6667 214.297 87.125 214.328C87.5938 214.349 88.0052 214.385 88.3594 214.438C88.7135 214.49 89.026 214.557 89.2969 214.641C89.5781 214.714 89.8438 214.807 90.0938 214.922C91.2396 215.432 92.1458 216.219 92.8125 217.281C93.4792 218.333 93.8125 219.615 93.8125 221.125C93.8125 221.802 93.724 222.464 93.5469 223.109C93.3698 223.755 93.1146 224.354 92.7812 224.906C92.4583 225.448 92.0573 225.932 91.5781 226.359C91.1094 226.776 90.5729 227.104 89.9688 227.344V227.406C90.0312 227.469 90.1042 227.552 90.1875 227.656C90.2604 227.74 90.3385 227.854 90.4219 228C90.5156 228.146 90.6198 228.318 90.7344 228.516L95.4062 237H90.7969L86.2812 228.516H82.3281V237H78.1875V214.281ZM86.0312 224.938C87.1354 224.938 88.0052 224.625 88.6406 224C89.2865 223.375 89.6094 222.495 89.6094 221.359C89.6094 220.818 89.5417 220.328 89.4062 219.891C89.2812 219.453 89.0573 219.083 88.7344 218.781C88.4219 218.469 88 218.234 87.4688 218.078C86.9375 217.911 86.2656 217.828 85.4531 217.828H82.3281V224.938H86.0312ZM99.25 214.281H107C108.75 214.281 110.339 214.536 111.766 215.047C113.193 215.547 114.406 216.281 115.406 217.25C116.417 218.219 117.198 219.406 117.75 220.812C118.302 222.219 118.578 223.818 118.578 225.609C118.578 227.401 118.302 229.005 117.75 230.422C117.198 231.828 116.417 233.021 115.406 234C114.406 234.969 113.193 235.714 111.766 236.234C110.339 236.745 108.75 237 107 237H99.25V214.281ZM106.781 233.453C107.938 233.453 108.979 233.286 109.906 232.953C110.833 232.609 111.625 232.109 112.281 231.453C112.938 230.797 113.443 229.979 113.797 229C114.151 228.021 114.328 226.891 114.328 225.609C114.328 224.349 114.146 223.234 113.781 222.266C113.427 221.297 112.917 220.484 112.25 219.828C111.594 219.172 110.802 218.677 109.875 218.344C108.948 218 107.917 217.828 106.781 217.828H103.391V233.453H106.781ZM130.688 214.281H134.828L143.422 227.406C143.641 227.74 143.859 228.109 144.078 228.516C144.307 228.911 144.51 229.292 144.688 229.656C144.896 230.073 145.104 230.495 145.312 230.922H145.375C145.333 230.505 145.297 230.089 145.266 229.672C145.234 229.318 145.208 228.938 145.188 228.531C145.167 228.115 145.156 227.74 145.156 227.406V214.281H149.25V237H145.156L136.547 223.906C136.328 223.573 136.104 223.208 135.875 222.812C135.656 222.406 135.458 222.021 135.281 221.656C135.073 221.24 134.865 220.818 134.656 220.391H134.594C134.625 220.807 134.661 221.224 134.703 221.641C134.734 222.005 134.76 222.391 134.781 222.797C134.812 223.203 134.828 223.573 134.828 223.906V237H130.688V214.281ZM154.688 214.281H158.812V228.844C158.812 229.604 158.932 230.281 159.172 230.875C159.411 231.458 159.75 231.953 160.188 232.359C160.625 232.766 161.151 233.078 161.766 233.297C162.391 233.505 163.083 233.609 163.844 233.609C164.604 233.609 165.292 233.505 165.906 233.297C166.531 233.078 167.062 232.766 167.5 232.359C167.948 231.953 168.292 231.453 168.531 230.859C168.771 230.266 168.891 229.583 168.891 228.812V214.281H173.016V228.844C173.016 230.115 172.797 231.276 172.359 232.328C171.922 233.37 171.302 234.266 170.5 235.016C169.698 235.766 168.734 236.349 167.609 236.766C166.484 237.182 165.24 237.391 163.875 237.391C162.5 237.391 161.245 237.182 160.109 236.766C158.984 236.349 158.016 235.766 157.203 235.016C156.401 234.266 155.781 233.37 155.344 232.328C154.906 231.276 154.688 230.115 154.688 228.844V214.281ZM179.625 214.281H184.047L188.484 225.516C188.609 225.849 188.74 226.214 188.875 226.609C189.01 226.995 189.135 227.354 189.25 227.688C189.375 228.083 189.505 228.469 189.641 228.844H189.703C189.828 228.469 189.953 228.083 190.078 227.688C190.193 227.354 190.312 226.995 190.438 226.609C190.562 226.214 190.693 225.849 190.828 225.516L195.281 214.281H199.688L201.516 237H197.422L196.453 224.297C196.432 223.922 196.417 223.531 196.406 223.125C196.406 222.708 196.406 222.328 196.406 221.984C196.406 221.578 196.411 221.177 196.422 220.781H196.359C196.224 221.208 196.089 221.63 195.953 222.047C195.839 222.411 195.708 222.797 195.562 223.203C195.417 223.599 195.276 223.964 195.141 224.297L191.469 233.094H187.844L184.203 224.297C184.057 223.964 183.911 223.594 183.766 223.188C183.63 222.781 183.5 222.396 183.375 222.031C183.229 221.615 183.089 221.188 182.953 220.75H182.891C182.901 221.146 182.906 221.552 182.906 221.969C182.906 222.323 182.901 222.708 182.891 223.125C182.891 223.531 182.88 223.922 182.859 224.297L181.891 237H177.766L179.625 214.281ZM206.562 214.281H214.703C215.724 214.281 216.661 214.411 217.516 214.672C218.38 214.932 219.12 215.312 219.734 215.812C220.359 216.302 220.844 216.911 221.188 217.641C221.531 218.37 221.703 219.203 221.703 220.141C221.703 221.203 221.458 222.161 220.969 223.016C220.49 223.87 219.818 224.531 218.953 225V225.062C219.578 225.25 220.12 225.526 220.578 225.891C221.036 226.255 221.417 226.677 221.719 227.156C222.031 227.625 222.26 228.141 222.406 228.703C222.552 229.266 222.625 229.833 222.625 230.406C222.625 231.542 222.411 232.526 221.984 233.359C221.568 234.182 221 234.865 220.281 235.406C219.562 235.948 218.729 236.349 217.781 236.609C216.833 236.87 215.839 237 214.797 237H206.562V214.281ZM214.703 223.562C215.151 223.562 215.547 223.49 215.891 223.344C216.245 223.188 216.542 222.979 216.781 222.719C217.021 222.458 217.203 222.151 217.328 221.797C217.453 221.432 217.516 221.047 217.516 220.641C217.516 220.234 217.453 219.859 217.328 219.516C217.214 219.172 217.031 218.875 216.781 218.625C216.542 218.375 216.24 218.182 215.875 218.047C215.521 217.901 215.104 217.828 214.625 217.828H210.703V223.562H214.703ZM215.109 233.453C215.641 233.453 216.109 233.375 216.516 233.219C216.922 233.052 217.266 232.823 217.547 232.531C217.828 232.24 218.042 231.891 218.188 231.484C218.333 231.078 218.406 230.635 218.406 230.156C218.406 229.688 218.328 229.255 218.172 228.859C218.026 228.453 217.812 228.104 217.531 227.812C217.25 227.521 216.906 227.297 216.5 227.141C216.094 226.974 215.63 226.891 215.109 226.891H210.703V233.453H215.109ZM227.125 214.281H240.734V217.828H231.266V223.781H238.906V227.344H231.266V233.453H241.234V237H227.125V214.281ZM245.531 214.281H252.859C253.474 214.281 254.01 214.297 254.469 214.328C254.938 214.349 255.349 214.385 255.703 214.438C256.057 214.49 256.37 214.557 256.641 214.641C256.922 214.714 257.188 214.807 257.438 214.922C258.583 215.432 259.49 216.219 260.156 217.281C260.823 218.333 261.156 219.615 261.156 221.125C261.156 221.802 261.068 222.464 260.891 223.109C260.714 223.755 260.458 224.354 260.125 224.906C259.802 225.448 259.401 225.932 258.922 226.359C258.453 226.776 257.917 227.104 257.312 227.344V227.406C257.375 227.469 257.448 227.552 257.531 227.656C257.604 227.74 257.682 227.854 257.766 228C257.859 228.146 257.964 228.318 258.078 228.516L262.75 237H258.141L253.625 228.516H249.672V237H245.531V214.281ZM253.375 224.938C254.479 224.938 255.349 224.625 255.984 224C256.63 223.375 256.953 222.495 256.953 221.359C256.953 220.818 256.885 220.328 256.75 219.891C256.625 219.453 256.401 219.083 256.078 218.781C255.766 218.469 255.344 218.234 254.812 218.078C254.281 217.911 253.609 217.828 252.797 217.828H249.672V224.938H253.375Z" fill="#EDEDED"/>
    <path d="M437.875 214.281H446.641C447.703 214.281 448.677 214.458 449.562 214.812C450.458 215.167 451.224 215.672 451.859 216.328C452.495 216.974 452.99 217.75 453.344 218.656C453.698 219.562 453.875 220.568 453.875 221.672C453.875 222.776 453.698 223.786 453.344 224.703C452.99 225.62 452.495 226.411 451.859 227.078C451.224 227.734 450.458 228.245 449.562 228.609C448.677 228.974 447.703 229.156 446.641 229.156H442.016V237H437.875V214.281ZM445.875 225.578C446.479 225.578 447.016 225.49 447.484 225.312C447.953 225.125 448.349 224.859 448.672 224.516C449.005 224.172 449.255 223.76 449.422 223.281C449.599 222.802 449.688 222.266 449.688 221.672C449.688 221.089 449.599 220.562 449.422 220.094C449.255 219.615 449.01 219.208 448.688 218.875C448.365 218.542 447.969 218.286 447.5 218.109C447.042 217.922 446.521 217.828 445.938 217.828H442.016V225.578H445.875ZM457.531 214.281H461.672V237H457.531V214.281ZM467.438 214.281H471.578L480.172 227.406C480.391 227.74 480.609 228.109 480.828 228.516C481.057 228.911 481.26 229.292 481.438 229.656C481.646 230.073 481.854 230.495 482.062 230.922H482.125C482.083 230.505 482.047 230.089 482.016 229.672C481.984 229.318 481.958 228.938 481.938 228.531C481.917 228.115 481.906 227.74 481.906 227.406V214.281H486V237H481.906L473.297 223.906C473.078 223.573 472.854 223.208 472.625 222.812C472.406 222.406 472.208 222.021 472.031 221.656C471.823 221.24 471.615 220.818 471.406 220.391H471.344C471.375 220.807 471.411 221.224 471.453 221.641C471.484 222.005 471.51 222.391 471.531 222.797C471.562 223.203 471.578 223.573 471.578 223.906V237H467.438V214.281Z" fill="#EDEDED"/>
    <path d="M457.579 59.4056C457.905 59.4056 458.422 59.4591 458.422 58.9778C458.422 58.6302 458.096 58.6035 457.824 58.6035H457.171V59.4056H457.579ZM458.667 60.689H458.313L457.633 59.6195H457.116V60.689H456.817V58.3628H457.851C458.041 58.3628 458.259 58.3628 458.422 58.4965C458.585 58.6035 458.694 58.7906 458.694 58.9778C458.694 59.4323 458.368 59.5928 457.96 59.6195L458.667 60.689ZM455.838 59.5393C455.838 60.5286 456.627 61.304 457.633 61.304C458.64 61.304 459.428 60.5286 459.428 59.5393C459.428 58.5767 458.64 57.7746 457.633 57.7746C456.627 57.8013 455.838 58.5767 455.838 59.5393ZM459.727 59.5393C459.727 60.689 458.776 61.5981 457.633 61.5981C456.464 61.5981 455.539 60.689 455.539 59.5393C455.539 58.3896 456.491 57.4805 457.66 57.4805C458.776 57.4805 459.727 58.4163 459.727 59.5393Z" fill="#EDEDED"/>
    <path d="M391.899 54.1391H387.738V49.861H391.954C393.613 49.861 395.136 50.3958 395.136 52.0268C395.109 53.2835 394.048 54.1391 391.899 54.1391ZM387.738 39.9413H391.247C393.341 39.9413 394.374 40.6365 394.374 41.9199C394.374 43.0161 393.776 43.9787 391.301 43.9787H387.765V39.9413H387.738ZM399.46 46.3851C402.588 45.3156 403.948 43.23 403.975 39.8343C403.975 34.6204 399.188 32.6953 393.885 32.6953H378.246V61.4118H393.721C399.596 61.4118 404.954 59.1391 404.954 53.3637C404.927 49.4332 403.213 47.4546 399.46 46.3851Z" fill="#EDEDED"/>
    <path d="M421.055 54.1391H416.894V49.861H421.11C422.769 49.861 424.292 50.3958 424.292 52.0268C424.265 53.2835 423.177 54.1391 421.055 54.1391ZM416.867 39.9413H420.375C422.47 39.9413 423.503 40.6365 423.503 41.9199C423.503 43.0161 422.905 43.9787 420.43 43.9787H416.894V39.9413H416.867ZM428.616 46.3851C431.744 45.3156 433.104 43.23 433.104 39.8343C433.104 34.6204 428.317 32.6953 423.014 32.6953H407.375V61.4118H422.85C428.698 61.4118 434.083 59.1391 434.083 53.3637C434.056 49.4332 432.369 47.4546 428.616 46.3851Z" fill="#EDEDED"/>
    <path d="M432.586 32.6953L443.22 49.8076V61.4118H452.984V49.7006L463.999 32.6953H453.909L448.877 41.0643L443.873 32.6953H432.586Z" fill="#EDEDED"/>
    <path d="M323.688 32.6953H333.451V53.3102H345.282V61.4118H323.688V32.6953Z" fill="#EDEDED"/>
    <path d="M366.551 47C366.551 43.5509 363.94 40.7434 360.703 40.7434C357.494 40.7434 354.856 43.5509 354.856 47C354.856 50.476 357.467 53.2567 360.703 53.2567C363.94 53.2567 366.551 50.4492 366.551 47ZM375.988 47C375.988 55.2888 369.162 62 360.73 62C352.299 62 345.473 55.2888 345.473 47C345.473 38.7113 352.299 32.0001 360.73 32.0001C369.134 31.9733 375.988 38.7113 375.988 47Z" fill="#EDEDED"/>
    <path d="M240.751 54.1391H236.589V49.861H240.805C242.464 49.861 243.987 50.3958 243.987 52.0268C243.96 53.2567 242.872 54.1391 240.751 54.1391ZM236.589 39.9413H240.098C242.192 39.9413 243.226 40.6365 243.226 41.9199C243.226 43.0161 242.627 43.9787 240.152 43.9787H236.617L236.589 39.9413ZM248.312 46.3851C251.439 45.3156 252.799 43.23 252.799 39.8343C252.799 34.6204 248.012 32.6953 242.709 32.6953H227.07V61.4118H242.546C248.393 61.4118 253.778 59.1391 253.778 53.3637C253.778 49.4065 252.065 47.4546 248.312 46.3851Z" fill="#EDEDED"/>
    <path d="M215.375 46.9733C215.375 43.5241 212.764 40.7166 209.555 40.7166C206.318 40.7166 203.707 43.5241 203.707 46.9733C203.707 50.4225 206.318 53.23 209.555 53.23C212.764 53.2567 215.375 50.4492 215.375 46.9733ZM224.812 46.9733C224.812 55.262 217.986 62 209.555 62C201.123 62 194.297 55.2888 194.297 47C194.297 38.7113 201.123 32.0001 209.555 32.0001C217.986 31.9733 224.812 38.6846 224.812 46.9733Z" fill="#EDEDED"/>
    <path d="M269.88 54.1391H265.718V49.861H269.934C271.593 49.861 273.116 50.3958 273.116 52.0268C273.089 53.2567 272.028 54.1391 269.88 54.1391ZM265.718 39.9413H269.227C271.321 39.9413 272.355 40.6365 272.355 41.9199C272.355 43.0161 271.756 43.9787 269.281 43.9787H265.746L265.718 39.9413ZM277.44 46.3851C280.568 45.3156 281.928 43.23 281.928 39.8343C281.928 34.6204 277.141 32.6953 271.838 32.6953H256.199V61.4118H271.675C277.549 61.4118 282.907 59.1391 282.907 53.3637C282.907 49.4065 281.194 47.4546 277.44 46.3851Z" fill="#EDEDED"/>
    <path d="M302.76 32.6953L297.702 41.0643L292.724 32.6953H281.438L292.072 49.8076V61.3851H301.836V49.6739L312.823 32.6953H302.76Z" fill="#EDEDED"/>
    <path d="M182.141 32.6152V43.2302H173.764V32.6152H164V61.3317H173.764V50.7168H182.141V61.3317H191.905V32.6152H182.141Z" fill="#EDEDED"/>
</svg>