<svg viewBox="0 0 294.61 50.54" xmlns="http://www.w3.org/2000/svg"><path d="m292.94 44-24.77-15.71a3.56 3.56 0 0 1 0-6l24.77-15.71a3.57 3.57 0 0 0 -1.94-6.58h-291v3.67h2.51a.5.5 0 0 1 0 1h-2.51v41.2h2.91a.5.5 0 1 1 0 1h-2.91v3.67h291a3.57 3.57 0 0 0 1.94-6.54zm-15.42-34.88a.5.5 0 0 1 .7.12.49.49 0 0 1 -.12.69l-.24.16-4.06 2.49a.54.54 0 0 1 -.27.07.48.48 0 0 1 -.42-.24.49.49 0 0 1 .16-.68l4.07-2.49zm-9.06-5.45h5a.5.5 0 0 1 0 1h-5a.5.5 0 0 1 0-1zm-256.41.5a.5.5 0 0 1 .5-.5h5a.5.5 0 0 1 0 1h-5a.5.5 0 0 1 -.5-.5zm5.95 42.7h-5a.5.5 0 1 1 0-1h5a.5.5 0 0 1 0 1zm9.16-42.7a.5.5 0 0 1 .5-.5h5a.5.5 0 0 1 0 1h-5a.5.5 0 0 1 -.55-.5zm5.84 42.7h-5a.5.5 0 0 1 0-1h5a.5.5 0 0 1 0 1zm9.17-42.7a.5.5 0 0 1 .5-.5h5a.5.5 0 0 1 0 1h-5a.5.5 0 0 1 -.5-.5zm5.88 42.7h-5.05a.5.5 0 0 1 0-1h5a.5.5 0 0 1 0 1zm9.18-42.7a.5.5 0 0 1 .5-.5h5a.5.5 0 0 1 .5.5.5.5 0 0 1 -.5.5h-5a.5.5 0 0 1 -.5-.5zm5.87 42.7h-5a.5.5 0 0 1 0-1h5a.5.5 0 0 1 0 1zm9.19-42.7a.51.51 0 0 1 .5-.5h5a.5.5 0 0 1 .5.5.5.5 0 0 1 -.5.5h-5a.5.5 0 0 1 -.5-.5zm5.86 42.7h-5a.5.5 0 0 1 0-1h5a.5.5 0 0 1 0 1zm9.2-42.7a.51.51 0 0 1 .5-.5h5a.5.5 0 0 1 .5.5.5.5 0 0 1 -.5.5h-5a.5.5 0 0 1 -.5-.5zm5.84 42.7h-5a.5.5 0 0 1 0-1h5a.5.5 0 0 1 0 1zm9.22-42.69a.5.5 0 0 1 .5-.5h5a.5.5 0 0 1 .5.5.5.5 0 0 1 -.5.5h-5a.5.5 0 0 1 -.5-.5zm5.82 42.69h-5a.5.5 0 0 1 0-1h5a.5.5 0 0 1 0 1zm9.24-42.69a.5.5 0 0 1 .5-.5h5a.5.5 0 0 1 .5.5.51.51 0 0 1 -.5.5h-5a.5.5 0 0 1 -.5-.5zm5.81 42.69h-5a.5.5 0 0 1 0-1h5a.5.5 0 0 1 0 1zm9.24-42.69a.5.5 0 0 1 .5-.5h5a.51.51 0 0 1 .5.5.5.5 0 0 1 -.5.5h-5a.51.51 0 0 1 -.5-.5zm5.81 42.69h-5a.5.5 0 0 1 0-1h5a.5.5 0 0 1 0 1zm9.24-42.7a.5.5 0 0 1 .5-.5h5a.5.5 0 0 1 0 1h-5a.5.5 0 0 1 -.5-.5zm5.83 42.7h-5a.5.5 0 0 1 -.5-.5.5.5 0 0 1 .5-.5h5a.51.51 0 0 1 .5.5.5.5 0 0 1 -.5.5zm9.22-42.7a.5.5 0 0 1 .5-.5h5a.5.5 0 0 1 0 1h-5a.5.5 0 0 1 -.5-.5zm5.85 42.7h-5a.5.5 0 0 1 -.5-.5.5.5 0 0 1 .5-.5h5a.51.51 0 0 1 .5.5.5.5 0 0 1 -.5.5zm9.2-42.7a.5.5 0 0 1 .5-.5h5a.5.5 0 0 1 0 1h-5a.5.5 0 0 1 -.5-.5zm5.85 42.7h-5a.5.5 0 0 1 -.5-.5.5.5 0 0 1 .5-.5h5a.51.51 0 0 1 .5.5.5.5 0 0 1 -.5.5zm9.2-42.7a.5.5 0 0 1 .5-.5h5a.5.5 0 0 1 0 1h-5a.5.5 0 0 1 -.5-.5zm5.85 42.7h-5a.5.5 0 0 1 -.5-.5.51.51 0 0 1 .5-.5h5a.5.5 0 0 1 .5.5.5.5 0 0 1 -.5.5zm9.2-42.7a.5.5 0 0 1 .5-.5h5a.5.5 0 0 1 0 1h-5a.5.5 0 0 1 -.5-.5zm5.85 42.7h-5a.5.5 0 0 1 -.5-.5.5.5 0 0 1 .5-.5h5a.5.5 0 0 1 .5.5.5.5 0 0 1 -.5.5zm9.2-42.7a.5.5 0 0 1 .5-.5h5a.5.5 0 0 1 0 1h-5a.5.5 0 0 1 -.5-.5zm5.86 42.7h-5a.5.5 0 0 1 -.5-.5.5.5 0 0 1 .5-.5h5a.51.51 0 0 1 .5.5.5.5 0 0 1 -.5.5zm9.18-42.7a.5.5 0 0 1 .5-.5h5a.5.5 0 0 1 0 1h-5a.5.5 0 0 1 -.5-.5zm5.87 42.7h-5a.5.5 0 0 1 -.5-.5.5.5 0 0 1 .5-.5h5a.51.51 0 0 1 .5.5.5.5 0 0 1 -.5.5zm9.18-42.7a.5.5 0 0 1 .5-.5h5a.5.5 0 0 1 0 1h-5a.5.5 0 0 1 -.5-.5zm5.87 42.7h-5a.5.5 0 0 1 -.5-.5.5.5 0 0 1 .5-.5h5a.51.51 0 0 1 .5.5.5.5 0 0 1 -.5.5zm6.41-13.58a.52.52 0 0 1 -.43.24.5.5 0 0 1 -.26-.08l-1.39-.84a8.58 8.58 0 0 1 -2.6-2.45.5.5 0 0 1 .13-.7.49.49 0 0 1 .69.13 7.54 7.54 0 0 0 2.3 2.16l1.39.85a.5.5 0 0 1 .17.69zm.05-15.48-1.61 1a7.69 7.69 0 0 0 -2.16 2 .51.51 0 0 1 -.4.2.55.55 0 0 1 -.3-.09.5.5 0 0 1 -.1-.7 8.54 8.54 0 0 1 2.44-2.23l1.6-1a.5.5 0 0 1 .53.85zm8.58 29.06h-5a.5.5 0 0 1 -.5-.5.5.5 0 0 1 .5-.5h5a.5.5 0 0 1 .5.5.5.5 0 0 1 -.5.5zm4.18-5.73a.52.52 0 0 1 -.43.24.5.5 0 0 1 -.26-.08l-4.28-2.61a.5.5 0 1 1 .52-.86l4.28 2.62a.5.5 0 0 1 .17.69z" fill="#231f20"/></svg>