<svg width="100" height="100" viewBox="0 0 100 100" fill="none" xmlns="http://www.w3.org/2000/svg">
<ellipse cx="49.8244" cy="50.3529" rx="49.8244" ry="49.6478" fill="#000C59"/>
<g clip-path="url(#clip0_9205_425864)">
<path d="M50.1766 8.33398C27.2574 8.33398 8.65625 27.0006 8.65625 50.0006C8.65625 73.0005 27.2574 91.6672 50.1766 91.6672C73.0958 91.6672 91.6969 73.0005 91.6969 50.0006C91.6969 27.0006 73.0958 8.33398 50.1766 8.33398ZM50.1766 20.834C57.069 20.834 62.6327 26.4173 62.6327 33.3339C62.6327 40.2506 57.069 45.8339 50.1766 45.8339C43.2842 45.8339 37.7205 40.2506 37.7205 33.3339C37.7205 26.4173 43.2842 20.834 50.1766 20.834ZM50.1766 80.0005C39.7965 80.0005 30.6205 74.6672 25.2644 66.5839C25.3889 58.2922 41.8725 53.7506 50.1766 53.7506C58.4391 53.7506 74.9642 58.2922 75.0888 66.5839C69.7327 74.6672 60.5567 80.0005 50.1766 80.0005Z" fill="white"/>
<g clip-path="url(#clip1_9205_425864)">
<path d="M83.9569 94.127C85.1542 94.127 86.1248 93.1598 86.1248 91.9668C86.1248 90.7738 85.1542 89.8066 83.9569 89.8066C82.7596 89.8066 81.7891 90.7738 81.7891 91.9668C81.7891 93.1598 82.7596 94.127 83.9569 94.127Z" fill="#5F5F5F"/>
<path d="M81.9238 84.2148C81.6438 84.2148 81.3766 84.3322 81.1872 84.5385L80.2447 85.5649H78.5365C77.2424 85.5649 76.1816 86.6169 76.1816 87.9151V96.0157C76.1816 97.3139 77.2424 98.3658 78.5365 98.3658H89.3758C90.6699 98.3658 91.7307 97.3139 91.7307 96.0157V87.9151C91.7307 86.6169 90.6699 85.5649 89.3758 85.5649H87.6677L86.7251 84.5385C86.5357 84.3322 86.2685 84.2148 85.9885 84.2148H81.9238ZM83.9562 94.3406C82.6353 94.3406 81.5689 93.2729 81.5689 91.9654C81.5689 90.6578 82.6353 89.5901 83.9562 89.5901C85.277 89.5901 86.3434 90.6578 86.3434 91.9654C86.3434 93.2729 85.277 94.3406 83.9562 94.3406Z" fill="#5F5F5F" stroke="white" stroke-width="2" stroke-linejoin="round"/>
</g>
</g>
<defs>
<clipPath id="clip0_9205_425864">
<rect width="99.6488" height="99.9998" fill="white" transform="translate(0.351562)"/>
</clipPath>
<clipPath id="clip1_9205_425864">
<rect width="16.2589" height="16.2012" fill="white" transform="translate(75.8262 83.8652)"/>
</clipPath>
</defs>
</svg>
