<svg width="21" height="22" viewBox="0 0 21 22" fill="none" xmlns="http://www.w3.org/2000/svg">
<path d="M0.375 3.125V18.875C0.375 20.1125 1.37625 21.125 2.625 21.125H18.375C19.6125 21.125 20.625 20.1125 20.625 18.875V3.125C20.625 1.8875 19.6125 0.875 18.375 0.875H2.625C1.37625 0.875 0.375 1.8875 0.375 3.125ZM13.875 7.625C13.875 9.4925 12.3675 11 10.5 11C8.6325 11 7.125 9.4925 7.125 7.625C7.125 5.7575 8.6325 4.25 10.5 4.25C12.3675 4.25 13.875 5.7575 13.875 7.625ZM3.75 16.625C3.75 14.375 8.25 13.1375 10.5 13.1375C12.75 13.1375 17.25 14.375 17.25 16.625V17.75H3.75V16.625Z" fill="#003087"/>
</svg>
