<svg width="10" height="16" viewBox="0 0 10 16" fill="none" xmlns="http://www.w3.org/2000/svg">
<path d="M5.32625 7.0375C3.34 6.52125 2.70125 5.9875 2.70125 5.15625C2.70125 4.2025 3.585 3.5375 5.06375 3.5375C6.62125 3.5375 7.19875 4.28125 7.25125 5.375H9.185C9.12375 3.87 8.205 2.4875 6.37625 2.04125V0.125H3.75125V2.015C2.05375 2.3825 0.68875 3.485 0.68875 5.17375C0.68875 7.195 2.36 8.20125 4.80125 8.7875C6.98875 9.3125 7.42625 10.0825 7.42625 10.8963C7.42625 11.5 6.9975 12.4625 5.06375 12.4625C3.26125 12.4625 2.5525 11.6575 2.45625 10.625H0.53125C0.63625 12.5413 2.07125 13.6175 3.75125 13.9762V15.875H6.37625V13.9938C8.0825 13.67 9.43875 12.6813 9.43875 10.8875C9.43875 8.4025 7.3125 7.55375 5.32625 7.0375Z" fill="#003087"/>
</svg>
