<svg fill="none" height="15" width="16" xmlns="http://www.w3.org/2000/svg"><path clip-rule="evenodd" d="m8.33 14.48c-4.06 0-7.351-3.23-7.351-7.214s3.29-7.213 7.35-7.213 7.351 3.23 7.351 7.213c0 3.984-3.29 7.214-7.35 7.214zm.101-7.618c.602 0 3.529-1.615 3.529-1.615l.004-.289a.583.583 0 0 0 -.589-.577h-5.888a.583.583 0 0 0 -.589.577v.257s2.959 1.647 3.533 1.647zm-3.528-.75s2.954 1.543 3.527 1.543c.63 0 3.529-1.543 3.529-1.543l.004 3.462a.583.583 0 0 1 -.589.578h-5.887a.583.583 0 0 1 -.589-.578z" fill="#fff" fill-rule="evenodd"/></svg>