<svg fill="none" height="15" width="16" xmlns="http://www.w3.org/2000/svg"><g fill="#fff"><path clip-rule="evenodd" d="m7.62.07c-4.058 0-7.35 3.23-7.35 7.216 0 3.984 3.291 7.213 7.35 7.213 4.06 0 7.352-3.23 7.352-7.213 0-3.986-3.292-7.216-7.352-7.216zm-1.615 3.39c.418-.018.552-.022 1.617-.022h-.002c1.065 0 1.198.004 1.616.023.417.019.702.083.952.179.258.098.477.23.695.443.218.214.352.429.452.682.096.244.163.524.182.934.02.41.024.541.024 1.586s-.005 1.176-.024 1.586c-.02.41-.085.69-.182.934-.1.253-.234.467-.452.681a1.922 1.922 0 0 1 -.694.444 2.93 2.93 0 0 1 -.952.18c-.419.018-.552.022-1.617.022-1.064 0-1.198-.004-1.616-.023a2.927 2.927 0 0 1 -.952-.179 1.923 1.923 0 0 1 -.694-.444 1.882 1.882 0 0 1 -.452-.681 2.781 2.781 0 0 1 -.182-.934c-.02-.41-.024-.541-.024-1.586s.005-1.176.024-1.587c.018-.409.085-.689.182-.933.1-.253.234-.468.452-.682s.437-.345.695-.443c.249-.096.534-.16.951-.18z" fill-rule="evenodd"/><path clip-rule="evenodd" d="m7.268 4.13h.351c1.047 0 1.171.004 1.585.023.382.017.59.08.727.132.183.07.314.153.451.288s.222.263.293.442c.054.136.118.34.135.715.02.405.023.527.023 1.554s-.004 1.148-.023 1.554c-.017.375-.081.579-.135.714-.07.18-.156.308-.293.442a1.215 1.215 0 0 1 -.45.288c-.139.053-.346.115-.728.133-.414.018-.538.022-1.585.022s-1.17-.004-1.584-.022c-.382-.018-.59-.08-.728-.133a1.217 1.217 0 0 1 -.45-.288 1.19 1.19 0 0 1 -.294-.442c-.054-.136-.118-.34-.135-.714-.019-.406-.023-.528-.023-1.555 0-1.028.004-1.149.023-1.554.017-.375.081-.58.135-.715a1.19 1.19 0 0 1 .293-.442c.137-.135.268-.218.451-.288.138-.053.346-.115.728-.133.362-.016.502-.02 1.233-.021zm2.446.64c-.26 0-.47.206-.47.461s.21.462.47.462.47-.207.47-.462a.466.466 0 0 0 -.47-.462zm-4.108 2.514c0-1.09.901-1.975 2.013-1.975s2.013.884 2.013 1.975c0 1.092-.9 1.976-2.013 1.976-1.112 0-2.013-.884-2.013-1.976z" fill-rule="evenodd"/><path d="m7.62 6.003c.722 0 1.307.574 1.307 1.282s-.585 1.283-1.307 1.283a1.295 1.295 0 0 1 -1.307-1.283c0-.708.586-1.282 1.307-1.282z"/></g></svg>