<svg width="15" height="15" fill="none" xmlns="http://www.w3.org/2000/svg"><path d="M7.35 0C3.292 0 0 3.217 0 7.184c0 3.045 1.936 5.647 4.67 6.694-.066-.568-.12-1.443.025-2.064.133-.562.859-3.571.859-3.571s-.218-.432-.218-1.065c0-.999.593-1.744 1.331-1.744.63 0 .932.461.932 1.011 0 .615-.4 1.537-.611 2.395-.176.715.369 1.3 1.089 1.3 1.307 0 2.311-1.347 2.311-3.287 0-1.72-1.264-2.92-3.073-2.92-2.094 0-3.322 1.53-3.322 3.115 0 .615.242 1.277.545 1.638a.21.21 0 0 1 .048.207c-.054.225-.182.716-.206.816-.03.13-.109.16-.248.095-.92-.42-1.494-1.727-1.494-2.785 0-2.265 1.682-4.346 4.858-4.346 2.547 0 4.532 1.774 4.532 4.15 0 2.478-1.598 4.47-3.812 4.47-.744 0-1.446-.378-1.682-.827l-.46 1.709c-.163.627-.61 1.407-.913 1.886a7.54 7.54 0 0 0 2.178.32c4.06 0 7.35-3.217 7.35-7.185C14.703 3.216 11.412 0 7.352 0z" fill="#fff"/></svg>