<svg fill="none" height="15" width="15" xmlns="http://www.w3.org/2000/svg"><path clip-rule="evenodd" d="m7.603.088c-4.06 0-7.351 3.23-7.351 7.214s3.291 7.214 7.35 7.214c4.06 0 7.352-3.23 7.352-7.214s-3.291-7.214-7.351-7.214zm-.205 6.114-.016-.25c-.046-.647.36-1.238 1.003-1.467.237-.082.638-.092.9-.02.103.03.298.132.437.224l.252.168.278-.087c.154-.046.36-.122.452-.173.087-.046.165-.071.165-.056 0 .086-.19.382-.35.545-.216.23-.154.25.283.097.262-.087.267-.087.216.01-.031.05-.19.23-.36.392-.288.28-.304.31-.304.545 0 .362-.174 1.116-.35 1.528-.323.775-1.017 1.575-1.711 1.977-.977.566-2.278.708-3.373.377-.366-.112-.993-.397-.993-.448 0-.016.19-.036.422-.041.483-.01.966-.143 1.378-.377l.277-.163-.318-.107c-.453-.153-.859-.504-.962-.835-.03-.107-.02-.113.268-.113l.298-.005-.252-.117c-.298-.148-.57-.397-.705-.652-.097-.183-.22-.647-.185-.682.01-.016.119.015.242.056.355.127.401.096.195-.118-.385-.387-.504-.962-.318-1.507l.087-.245.34.331a4.213 4.213 0 0 0 2.446 1.182l.257.03z" fill="#fff" fill-rule="evenodd"/></svg>