<svg fill="none" height="15" width="16" xmlns="http://www.w3.org/2000/svg"><g fill="#fff"><path clip-rule="evenodd" d="m7.854.016c-4.06 0-7.35 3.23-7.35 7.214s3.29 7.214 7.35 7.214 7.351-3.23 7.351-7.214-3.29-7.214-7.35-7.214zm3.063 4.734c.338.091.603.359.694.699.163.616.163 1.901.163 1.901s0 1.286-.163 1.902a.986.986 0 0 1 -.694.699c-.611.165-3.063.165-3.063.165s-2.452 0-3.064-.165a.986.986 0 0 1 -.693-.699c-.164-.616-.164-1.902-.164-1.902s0-1.285.164-1.901a.986.986 0 0 1 .693-.699c.612-.165 3.064-.165 3.064-.165s2.452 0 3.063.165z" fill-rule="evenodd"/><path d="m7.119 8.673v-2.403l1.96 1.202-1.96 1.202z"/></g></svg>