<svg width="21" height="16" viewBox="0 0 21 16" fill="none" xmlns="http://www.w3.org/2000/svg">
<path d="M15.3125 0.4375C13.6062 0.4375 11.7688 0.7875 10.5 1.75C9.23125 0.7875 7.39375 0.4375 5.6875 0.4375C3.98125 0.4375 2.14375 0.7875 0.875 1.75V14.5687C0.875 15.1375 1.51375 14.9625 1.53125 14.9625C2.7125 14.3938 4.41875 14 5.6875 14C7.39375 14 9.23125 14.35 10.5 15.3125C11.6812 14.5688 13.825 14 15.3125 14C16.7563 14 18.2437 14.2625 19.4688 14.9187C19.8275 15.1025 20.125 14.7525 20.125 14.525V1.75C18.8213 0.77 16.9487 0.4375 15.3125 0.4375ZM18.375 12.6875C17.4125 12.3813 16.3625 12.25 15.3125 12.25C13.825 12.25 11.6812 12.8188 10.5 13.5625V3.5C11.6812 2.75625 13.825 2.1875 15.3125 2.1875C16.3625 2.1875 17.4125 2.31875 18.375 2.625V12.6875Z" fill="#5F5F5F"/>
</svg>
