<svg width="166" height="90" viewBox="0 0 166 90" fill="none" xmlns="http://www.w3.org/2000/svg">
<path d="M145.738 38.9622L129.389 5.91832C127.743 2.59133 124.025 0.833597 120.409 1.67325L111.401 3.76513C107.777 4.60687 105.211 7.83665 105.211 11.5578V69.9853C105.211 74.4036 108.793 77.9853 113.211 77.9853H157.227C161.645 77.9853 165.227 74.4036 165.227 69.9854V54.7096C165.227 51.5179 163.329 48.6316 160.399 47.3657L149.736 42.7586C147.995 42.0067 146.579 40.6613 145.738 38.9622Z" fill="white"/>
<path d="M129.766 11.0664C129.766 5.54357 125.288 1.06641 119.766 1.06641H5.6413C2.87988 1.06641 0.641296 3.30498 0.641296 6.06641V72.9844C0.641296 75.7459 2.87988 77.9844 5.6413 77.9844H129.766V11.0664Z" fill="white"/>
<ellipse cx="12.7306" cy="11.9926" rx="12.7306" ry="11.9926" transform="matrix(-1 0 0 1 41.5547 64.752)" fill="white"/>
<ellipse cx="12.7306" cy="11.9926" rx="12.7306" ry="11.9926" transform="matrix(-1 0 0 1 151.586 65.5791)" fill="white"/>
<g clip-path="url(#clip0_1471_855)">
<path d="M49.4144 42.4702C49.5529 43.733 49.8021 45.6937 51.3086 46.1866C52.3277 46.5024 53.236 46.5024 53.585 46.5024C53.7622 46.5024 53.8675 46.5356 53.8675 46.6796C53.8675 46.8901 53.5517 46.9953 53.1308 46.9953C52.3609 46.9953 48.5725 46.8901 47.2765 46.7848C46.4678 46.7128 46.2961 46.6076 46.2961 46.4359C46.2961 46.2974 46.3681 46.2254 46.5398 46.1922C46.7171 46.159 46.7503 45.5608 46.6783 44.9294L44.9946 26.8402H44.8893L36.2989 45.0678C35.5623 46.6076 35.457 46.9288 35.1413 46.9288C34.8976 46.9288 34.7204 46.5799 34.0558 45.3171C33.1419 43.6001 30.1289 37.5353 29.9572 37.1864C29.6415 36.555 25.7146 28.1418 25.3324 27.1947H25.194L23.7927 43.4616C23.7594 44.021 23.7594 44.6525 23.7594 45.2506C23.7594 45.7768 24.1472 46.231 24.6733 46.3362C25.2715 46.4747 25.7977 46.5079 26.0026 46.5079C26.1411 46.5079 26.2851 46.5799 26.2851 46.6851C26.2851 46.9288 26.0746 47.0008 25.6537 47.0008C24.3576 47.0008 22.6739 46.8956 22.3914 46.8956C22.0757 46.8956 20.392 47.0008 19.4449 47.0008C19.0959 47.0008 18.8467 46.9288 18.8467 46.6851C18.8467 46.5799 19.0239 46.5079 19.1956 46.5079C19.4781 46.5079 19.7218 46.5079 20.248 46.4027C21.4055 46.1922 21.5108 44.8241 21.6492 43.4949L24.1804 20.6314C24.2136 20.2437 24.3576 20 24.5681 20C24.7786 20 24.917 20.1385 25.0943 20.5262L35.8226 42.5755L46.1189 20.5594C46.2574 20.2437 46.4014 20 46.6451 20C46.8888 20 46.994 20.2825 47.066 20.9471L49.4144 42.4702Z" fill="#003F2D"/>
<path d="M23.5882 56.9427C23.6215 57.2584 23.6824 57.7458 24.059 57.8677C24.3138 57.9452 24.5354 57.9452 24.624 57.9452C24.6683 57.9452 24.696 57.9563 24.696 57.9895C24.696 58.0394 24.6184 58.0671 24.5132 58.0671C24.3193 58.0671 23.3833 58.0394 23.0621 58.0172C22.8627 58.0006 22.8184 57.9729 22.8184 57.9286C22.8184 57.8954 22.835 57.8787 22.8793 57.8677C22.9236 57.8566 22.9291 57.7126 22.9125 57.552L22.4971 53.0601H22.4694L20.3371 57.5852C20.1543 57.9674 20.1266 58.0449 20.0491 58.0449C19.9881 58.0449 19.9438 57.9563 19.7777 57.6461C19.5506 57.2196 18.8029 55.7131 18.7586 55.6301C18.681 55.475 17.7062 53.3869 17.6121 53.1487H17.5788L17.2299 57.1864C17.2188 57.3249 17.2188 57.48 17.2188 57.6295C17.2188 57.7624 17.313 57.8732 17.4459 57.9009C17.5954 57.9341 17.7228 57.9452 17.7782 57.9452C17.8115 57.9452 17.8502 57.9618 17.8502 57.9895C17.8502 58.0504 17.8004 58.0671 17.6951 58.0671C17.3739 58.0671 16.953 58.0394 16.8865 58.0394C16.809 58.0394 16.388 58.0671 16.1554 58.0671C16.0668 58.0671 16.0059 58.0504 16.0059 57.9895C16.0059 57.9618 16.0502 57.9452 16.0945 57.9452C16.1665 57.9452 16.2274 57.9452 16.3548 57.9175C16.6428 57.8677 16.6705 57.5243 16.7037 57.1975L17.3296 51.5259C17.3407 51.4318 17.3739 51.3708 17.4237 51.3708C17.4736 51.3708 17.5124 51.4041 17.5567 51.5038L20.2208 56.9759L22.7796 51.5093C22.8128 51.4318 22.8516 51.3708 22.9125 51.3708C22.9735 51.3708 23.0012 51.4429 23.0178 51.6035L23.5993 56.9483L23.5882 56.9427Z" fill="#003F2D"/>
<path d="M28.2188 51.7087C28.324 51.4207 28.3572 51.3708 28.4071 51.3708C28.4569 51.3708 28.4957 51.4152 28.6009 51.6866C28.7339 52.0189 30.0964 55.6134 30.6281 56.9316C30.9438 57.707 31.193 57.8455 31.3758 57.8954C31.5087 57.9397 31.6361 57.9452 31.7247 57.9452C31.7746 57.9452 31.8133 57.9563 31.8133 57.9951C31.8133 58.0449 31.7358 58.0671 31.6416 58.0671C31.5087 58.0671 30.8773 58.0671 30.2736 58.0504C30.1074 58.0394 30.0133 58.0394 30.0133 57.9895C30.0133 57.9563 30.041 57.9397 30.0742 57.9286C30.1241 57.912 30.1794 57.8344 30.1241 57.696L29.3154 55.5581C29.2988 55.5248 29.2822 55.5082 29.2379 55.5082H27.3658C27.3215 55.5082 27.2938 55.5359 27.2772 55.5802L26.7566 57.1199C26.679 57.336 26.6347 57.5464 26.6347 57.7015C26.6347 57.8732 26.8175 57.9563 26.967 57.9563H27.0557C27.1166 57.9563 27.1443 57.9729 27.1443 58.0061C27.1443 58.056 27.0944 58.0781 27.0113 58.0781C26.8009 58.0781 26.4298 58.0504 26.3301 58.0504C26.2304 58.0504 25.7541 58.0781 25.3498 58.0781C25.239 58.0781 25.1836 58.0615 25.1836 58.0061C25.1836 57.9729 25.2168 57.9563 25.2611 57.9563C25.3221 57.9563 25.4439 57.9452 25.5159 57.9397C25.9147 57.8898 26.0919 57.5575 26.247 57.1199L28.2243 51.7142L28.2188 51.7087ZM29.1216 55.187C29.1659 55.187 29.1659 55.1593 29.1548 55.126L28.3295 52.7777C28.2852 52.6447 28.2409 52.6447 28.1966 52.7777L27.4323 55.126C27.4157 55.1704 27.4323 55.187 27.46 55.187H29.1216Z" fill="#003F2D"/>
<path d="M33.1426 54.0128C33.1426 52.6558 33.1426 52.4121 33.126 52.1352C33.1093 51.8417 33.0373 51.6977 32.7493 51.6367C32.6773 51.6201 32.5333 51.609 32.4558 51.609C32.4226 51.609 32.3838 51.5924 32.3838 51.5592C32.3838 51.5093 32.4281 51.4872 32.5223 51.4872C32.9155 51.4872 33.4638 51.5149 33.5081 51.5149C33.6023 51.5149 34.2669 51.4872 34.5328 51.4872C35.0811 51.4872 35.6627 51.537 36.1279 51.8693C36.3439 52.0244 36.7261 52.4509 36.7261 53.0546C36.7261 53.6971 36.4547 54.3451 35.6737 55.0651C36.3882 55.979 36.9809 56.7544 37.4849 57.2917C37.9557 57.7901 38.3267 57.8843 38.5483 57.9175C38.7144 57.9452 38.8363 57.9452 38.8861 57.9452C38.9305 57.9452 38.9637 57.9729 38.9637 57.9951C38.9637 58.0449 38.9138 58.0671 38.7532 58.0671H38.1329C37.6455 58.0671 37.4295 58.0228 37.2024 57.9009C36.8258 57.7015 36.5211 57.2751 36.0282 56.6215C35.6627 56.1452 35.2528 55.5581 35.0811 55.3365C35.0479 55.3033 35.0202 55.2867 34.9703 55.2867L33.9014 55.2701C33.8571 55.2701 33.8404 55.2978 33.8404 55.3421V55.5525C33.8404 56.3889 33.8404 57.0757 33.8848 57.4412C33.9125 57.696 33.9623 57.8843 34.2226 57.9175C34.3445 57.9342 34.5328 57.9508 34.6159 57.9508C34.6657 57.9508 34.6879 57.9785 34.6879 58.0006C34.6879 58.0449 34.6436 58.0726 34.5494 58.0726C34.0731 58.0726 33.5247 58.0449 33.4804 58.0449C33.4694 58.0449 32.921 58.0726 32.6607 58.0726C32.5666 58.0726 32.5223 58.056 32.5223 58.0006C32.5223 57.9729 32.5389 57.9508 32.5943 57.9508C32.6718 57.9508 32.777 57.9342 32.8546 57.9175C33.0263 57.8843 33.0706 57.6905 33.1093 57.4412C33.1537 57.0757 33.1537 56.3889 33.1537 55.5525V54.0183L33.1426 54.0128ZM33.8404 54.7716C33.8404 54.8159 33.8571 54.8491 33.9014 54.8768C34.0343 54.9544 34.4331 55.0153 34.8152 55.0153C35.0257 55.0153 35.2694 54.9876 35.4688 54.8491C35.7734 54.6387 36.0005 54.1679 36.0005 53.5088C36.0005 52.4232 35.4245 51.7697 34.494 51.7697C34.2337 51.7697 34.0011 51.7973 33.9125 51.8195C33.8681 51.8361 33.8404 51.8693 33.8404 51.9247V54.7716Z" fill="#003F2D"/>
<path d="M40.138 54.0128C40.138 52.6559 40.138 52.4122 40.1214 52.1352C40.1048 51.8417 40.0328 51.6977 39.7503 51.6367C39.6783 51.6201 39.5343 51.6091 39.4568 51.6091C39.4235 51.6091 39.3848 51.5924 39.3848 51.5592C39.3848 51.5094 39.4291 51.4872 39.5232 51.4872C39.9165 51.4872 40.4648 51.5149 40.5091 51.5149C40.6143 51.5149 41.1627 51.4872 41.6833 51.4872C42.5473 51.4872 44.1369 51.4097 45.1726 52.4786C45.6102 52.9328 46.0145 53.6528 46.0145 54.6885C46.0145 55.7852 45.5603 56.6271 45.0729 57.1421C44.7019 57.5354 43.9154 58.1446 42.4366 58.1446C42.0599 58.1446 41.6002 58.1169 41.2291 58.0948C40.847 58.0671 40.5479 58.0449 40.5091 58.0449C40.4925 58.0449 40.3429 58.0449 40.1602 58.056C39.9885 58.056 39.7835 58.0726 39.6562 58.0726C39.562 58.0726 39.5177 58.056 39.5177 58.0006C39.5177 57.9729 39.5343 57.9508 39.5897 57.9508C39.6672 57.9508 39.7725 57.9342 39.85 57.9176C40.0217 57.8843 40.066 57.6905 40.1048 57.4412C40.1491 57.0757 40.1491 56.3889 40.1491 55.5526V54.0184L40.138 54.0128ZM40.8691 54.9544C40.8691 55.8793 40.8802 56.6769 40.8857 56.8431C40.8968 57.0591 40.9134 57.408 40.9799 57.5022C41.0907 57.6683 41.4341 57.8511 42.4587 57.8511C43.2673 57.8511 44.0151 57.5575 44.5302 57.0425C44.9843 56.5994 45.228 55.763 45.228 54.9599C45.228 53.8522 44.7517 53.1433 44.3917 52.7666C43.572 51.9026 42.5806 51.7808 41.5448 51.7808C41.3731 51.7808 41.0464 51.8084 40.9799 51.8417C40.9023 51.8749 40.8747 51.9192 40.8747 52.0134C40.8636 52.3069 40.8636 53.1986 40.8636 53.8688V54.9489L40.8691 54.9544Z" fill="#003F2D"/>
<path d="M47.5928 54.0128C47.5928 52.6558 47.5928 52.4121 47.5762 52.1352C47.5595 51.8416 47.4875 51.6976 47.1995 51.6367C47.1275 51.6201 46.9835 51.609 46.906 51.609C46.8728 51.609 46.834 51.5924 46.834 51.5592C46.834 51.5093 46.8783 51.4872 46.9725 51.4872C47.1718 51.4872 47.41 51.4872 47.5983 51.4982L47.9528 51.5149C48.0137 51.5149 49.7473 51.5149 49.9467 51.5038C50.1129 51.4927 50.2513 51.4761 50.3233 51.4595C50.3676 51.4484 50.4009 51.4152 50.4452 51.4152C50.4729 51.4152 50.4784 51.4484 50.4784 51.4927C50.4784 51.5536 50.4341 51.6589 50.4064 51.9026C50.3953 51.9912 50.3787 52.3733 50.3621 52.4786C50.351 52.5229 50.3344 52.5727 50.3012 52.5727C50.2513 52.5727 50.2292 52.5284 50.2292 52.462C50.2292 52.401 50.2181 52.2515 50.1793 52.1463C50.1184 52.0078 50.0298 51.9026 49.559 51.8527C49.4094 51.8361 48.4623 51.825 48.3682 51.825C48.335 51.825 48.3183 51.8527 48.3183 51.9136V54.3174C48.3183 54.3783 48.3294 54.406 48.3682 54.406C48.479 54.406 49.5535 54.406 49.7528 54.3894C49.9633 54.3728 50.0852 54.3562 50.1627 54.2676C50.2236 54.1956 50.2569 54.1568 50.2956 54.1568C50.3233 54.1568 50.3399 54.1734 50.3399 54.2288C50.3399 54.2842 50.2956 54.4282 50.2679 54.7162C50.2513 54.8879 50.2347 55.2147 50.2347 55.2756C50.2347 55.3476 50.2347 55.4417 50.1738 55.4417C50.1295 55.4417 50.1129 55.4085 50.1129 55.3642C50.1129 55.2756 50.1129 55.1925 50.0796 55.0762C50.0464 54.9543 49.9633 54.8048 49.6255 54.7716C49.3928 54.7439 48.5288 54.7273 48.3793 54.7273C48.335 54.7273 48.3183 54.755 48.3183 54.7882V55.5525C48.3183 55.8461 48.3073 56.8596 48.3183 57.0424C48.346 57.6406 48.4734 57.7569 49.3264 57.7569C49.5535 57.7569 49.9356 57.7569 50.1627 57.6627C50.3898 57.5686 50.495 57.3913 50.5559 57.0369C50.5726 56.9427 50.5892 56.9039 50.6335 56.9039C50.6833 56.9039 50.6833 56.9759 50.6833 57.0369C50.6833 57.1089 50.6113 57.696 50.5726 57.8787C50.5116 58.1058 50.4396 58.1058 50.1018 58.1058C49.4482 58.1058 48.9719 58.0892 48.634 58.0781C48.2962 58.0615 48.0857 58.0504 47.9528 58.0504C47.9362 58.0504 47.7866 58.0504 47.6039 58.0615C47.4322 58.0615 47.2272 58.0781 47.0998 58.0781C47.0057 58.0781 46.9614 58.0615 46.9614 58.0061C46.9614 57.9784 46.978 57.9563 47.0334 57.9563C47.1109 57.9563 47.2162 57.9397 47.2937 57.9231C47.4654 57.8898 47.5097 57.696 47.5485 57.4467C47.5928 57.0812 47.5928 56.3944 47.5928 55.5581V54.0239V54.0128Z" fill="#003F2D"/>
<path d="M53.1982 55.5636C53.1982 56.843 53.2315 57.4024 53.3921 57.5575C53.5305 57.6959 53.7576 57.7569 54.4389 57.7569C54.8986 57.7569 55.2807 57.7458 55.4912 57.4966C55.602 57.3581 55.6906 57.1421 55.7183 56.9759C55.7294 56.9039 55.746 56.8651 55.7958 56.8651C55.8401 56.8651 55.8457 56.8984 55.8457 56.9981C55.8457 57.0978 55.7848 57.6184 55.7128 57.8676C55.6518 58.067 55.6241 58.1003 55.1644 58.1003C54.5386 58.1003 54.0844 58.0836 53.7188 58.0726C53.3533 58.056 53.0819 58.0449 52.8327 58.0449C52.7994 58.0449 52.6499 58.056 52.4782 58.056C52.3065 58.067 52.1126 58.0726 51.9797 58.0726C51.8856 58.0726 51.8413 58.056 51.8413 58.0006C51.8413 57.9729 51.8579 57.9507 51.9133 57.9507C51.9908 57.9507 52.096 57.9341 52.1736 57.9175C52.3453 57.8843 52.3896 57.6904 52.4283 57.4412C52.4727 57.0756 52.4727 56.3888 52.4727 55.5525V54.0183C52.4727 52.6613 52.4727 52.4176 52.456 52.1407C52.4394 51.8471 52.3674 51.7031 52.0794 51.6422C52.0074 51.6256 51.8634 51.6145 51.7859 51.6145C51.7526 51.6145 51.7139 51.5979 51.7139 51.5647C51.7139 51.5148 51.7582 51.4927 51.8523 51.4927C52.2456 51.4927 52.7939 51.5204 52.8382 51.5204C52.8825 51.5204 53.5195 51.4927 53.7798 51.4927C53.8739 51.4927 53.9182 51.5093 53.9182 51.5647C53.9182 51.5979 53.885 51.6145 53.8462 51.6145C53.7853 51.6145 53.6635 51.6256 53.5582 51.6422C53.3035 51.6865 53.237 51.8361 53.2204 52.1407C53.2038 52.4176 53.2038 52.6613 53.2038 54.0183V55.5691L53.1982 55.5636Z" fill="#003F2D"/>
<path d="M54.9365 51.9745C54.9365 51.681 55.1636 51.465 55.4682 51.465C55.7729 51.465 55.9999 51.681 55.9999 51.9745C55.9999 52.2681 55.7729 52.4785 55.4682 52.4785C55.1636 52.4785 54.9365 52.257 54.9365 51.9745ZM55.9058 51.969C55.9058 51.7197 55.723 51.5536 55.4738 51.5536C55.2245 51.5536 55.0362 51.7197 55.0362 51.969C55.0362 52.2182 55.219 52.3899 55.4793 52.3899C55.7396 52.3899 55.9058 52.2127 55.9058 51.969ZM55.2744 51.8859C55.2744 51.7973 55.2688 51.7585 55.2688 51.7308C55.2688 51.6976 55.2522 51.692 55.2024 51.692C55.2024 51.692 55.1858 51.6865 55.1858 51.681C55.1858 51.6699 55.1968 51.6644 55.2135 51.6644H55.2411C55.2411 51.6644 55.2965 51.6699 55.3187 51.6699C55.3685 51.6699 55.3962 51.6644 55.4405 51.6644C55.5402 51.6644 55.6842 51.681 55.6842 51.8194C55.6842 51.8748 55.6676 51.9247 55.579 51.9911L55.6787 52.113C55.7562 52.2071 55.7784 52.2127 55.7895 52.2127C55.8005 52.2127 55.8061 52.2182 55.8061 52.2238C55.8061 52.2348 55.8006 52.2404 55.7673 52.2404C55.6898 52.2404 55.651 52.2459 55.5624 52.1296L55.4793 52.0188H55.3741V52.0687C55.3741 52.185 55.3796 52.1905 55.3852 52.1961C55.3962 52.2016 55.4239 52.2071 55.4405 52.2071C55.4516 52.2071 55.4572 52.2071 55.4572 52.2182C55.4572 52.2293 55.4461 52.2348 55.435 52.2348H55.4128C55.4128 52.2348 55.3464 52.2293 55.3187 52.2293C55.3021 52.2293 55.2411 52.2348 55.2301 52.2348H55.2024C55.2024 52.2348 55.1802 52.2348 55.1802 52.2238C55.1802 52.2127 55.1913 52.2071 55.2024 52.2071C55.2356 52.2071 55.2541 52.1961 55.2578 52.1739C55.2578 52.1462 55.2633 52.1019 55.2633 52.0133V51.8859H55.2744ZM55.3796 51.9579C55.3796 51.9579 55.4295 51.9745 55.4682 51.9745C55.4848 51.9745 55.507 51.969 55.5236 51.9579C55.5513 51.9413 55.5735 51.9136 55.5735 51.8527C55.5735 51.7696 55.5236 51.7142 55.4295 51.7142C55.4239 51.7142 55.3907 51.7142 55.3796 51.7253V51.9579Z" fill="#003F2D"/>
</g>
<defs>
<clipPath id="clip0_1471_855">
<rect width="40" height="38.1446" fill="white" transform="translate(16 20)"/>
</clipPath>
</defs>
</svg>
