<svg width="23" height="16" viewBox="0 0 23 16" fill="none" xmlns="http://www.w3.org/2000/svg">
<path d="M5.1 15.975C4.28333 15.975 3.5875 15.6875 3.0125 15.1125C2.4375 14.5375 2.15 13.8417 2.15 13.025H0.5V1.5C0.5 1.1 0.65 0.75 0.95 0.45C1.25 0.15 1.6 0 2 0H16.475V4.175H19.1L22.5 8.7V13.025H20.725C20.725 13.8417 20.4375 14.5375 19.8625 15.1125C19.2875 15.6875 18.5917 15.975 17.775 15.975C16.9583 15.975 16.2625 15.6875 15.6875 15.1125C15.1125 14.5375 14.825 13.8417 14.825 13.025H8.05C8.05 13.8417 7.7625 14.5375 7.1875 15.1125C6.6125 15.6875 5.91667 15.975 5.1 15.975ZM5.1 14.475C5.5 14.475 5.84167 14.3333 6.125 14.05C6.40833 13.7667 6.55 13.425 6.55 13.025C6.55 12.625 6.40833 12.2833 6.125 12C5.84167 11.7167 5.5 11.575 5.1 11.575C4.7 11.575 4.35833 11.7167 4.075 12C3.79167 12.2833 3.65 12.625 3.65 13.025C3.65 13.425 3.79167 13.7667 4.075 14.05C4.35833 14.3333 4.7 14.475 5.1 14.475ZM2 11.525H2.55C2.83333 11.075 3.19167 10.7167 3.625 10.45C4.05833 10.1833 4.54167 10.05 5.075 10.05C5.60833 10.05 6.09583 10.1875 6.5375 10.4625C6.97917 10.7375 7.34167 11.0917 7.625 11.525H14.975V1.5H2V11.525ZM17.775 14.475C18.175 14.475 18.5167 14.3333 18.8 14.05C19.0833 13.7667 19.225 13.425 19.225 13.025C19.225 12.625 19.0833 12.2833 18.8 12C18.5167 11.7167 18.175 11.575 17.775 11.575C17.375 11.575 17.0333 11.7167 16.75 12C16.4667 12.2833 16.325 12.625 16.325 13.025C16.325 13.425 16.4667 13.7667 16.75 14.05C17.0333 14.3333 17.375 14.475 17.775 14.475ZM16.475 9.375H21.125L18.35 5.675H16.475V9.375Z" fill="black"/>
</svg>
