<svg width="19" height="18" viewBox="0 0 19 18" fill="none" xmlns="http://www.w3.org/2000/svg">
<path d="M5 13.85C5.2 13.85 5.375 13.775 5.525 13.625C5.675 13.475 5.75 13.3 5.75 13.1C5.75 12.9 5.675 12.725 5.525 12.575C5.375 12.425 5.2 12.35 5 12.35C4.8 12.35 4.625 12.425 4.475 12.575C4.325 12.725 4.25 12.9 4.25 13.1C4.25 13.3 4.325 13.475 4.475 13.625C4.625 13.775 4.8 13.85 5 13.85ZM5 9.75C5.2 9.75 5.375 9.675 5.525 9.525C5.675 9.375 5.75 9.2 5.75 9C5.75 8.8 5.675 8.625 5.525 8.475C5.375 8.325 5.2 8.25 5 8.25C4.8 8.25 4.625 8.325 4.475 8.475C4.325 8.625 4.25 8.8 4.25 9C4.25 9.2 4.325 9.375 4.475 9.525C4.625 9.675 4.8 9.75 5 9.75ZM5 5.65C5.2 5.65 5.375 5.575 5.525 5.425C5.675 5.275 5.75 5.1 5.75 4.9C5.75 4.7 5.675 4.525 5.525 4.375C5.375 4.225 5.2 4.15 5 4.15C4.8 4.15 4.625 4.225 4.475 4.375C4.325 4.525 4.25 4.7 4.25 4.9C4.25 5.1 4.325 5.275 4.475 5.425C4.625 5.575 4.8 5.65 5 5.65ZM8.3 13.85H14.4V12.35H8.3V13.85ZM8.3 9.75H14.4V8.25H8.3V9.75ZM8.3 5.65H14.4V4.15H8.3V5.65ZM2 18C1.6 18 1.25 17.85 0.95 17.55C0.65 17.25 0.5 16.9 0.5 16.5V1.5C0.5 1.1 0.65 0.75 0.95 0.45C1.25 0.15 1.6 0 2 0H17C17.4 0 17.75 0.15 18.05 0.45C18.35 0.75 18.5 1.1 18.5 1.5V16.5C18.5 16.9 18.35 17.25 18.05 17.55C17.75 17.85 17.4 18 17 18H2ZM2 16.5H17V1.5H2V16.5ZM2 1.5V16.5V1.5Z" fill="black"/>
</svg>
