<svg width="21" height="18" viewBox="0 0 21 18" fill="none" xmlns="http://www.w3.org/2000/svg">
<path d="M20.3995 5.89L19.3495 1.52C19.1295 0.62 18.3495 0 17.4395 0H3.54952C2.64952 0 1.85952 0.63 1.64952 1.52L0.599518 5.89C0.359518 6.91 0.579518 7.95 1.21952 8.77C1.29952 8.88 1.40952 8.96 1.49952 9.06V16C1.49952 17.1 2.39952 18 3.49952 18H17.4995C18.5995 18 19.4995 17.1 19.4995 16V9.06C19.5895 8.97 19.6995 8.88 19.7795 8.78C20.4195 7.96 20.6495 6.91 20.3995 5.89ZM17.4095 1.99L18.4595 6.36C18.5595 6.78 18.4695 7.2 18.2095 7.53C18.0695 7.71 17.7695 8 17.2695 8C16.6595 8 16.1295 7.51 16.0595 6.86L15.4795 2L17.4095 1.99ZM11.4995 2H13.4595L13.9995 6.52C14.0495 6.91 13.9295 7.3 13.6695 7.59C13.4495 7.85 13.1295 8 12.7195 8C12.0495 8 11.4995 7.41 11.4995 6.69V2ZM6.98952 6.52L7.53952 2H9.49952V6.69C9.49952 7.41 8.94952 8 8.20952 8C7.86952 8 7.55952 7.85 7.31952 7.59C7.06952 7.3 6.94952 6.91 6.98952 6.52ZM2.53952 6.36L3.54952 2H5.51952L4.93952 6.86C4.85952 7.51 4.33952 8 3.72952 8C3.23952 8 2.92952 7.71 2.79952 7.53C2.52952 7.21 2.43952 6.78 2.53952 6.36ZM3.49952 16V9.97C3.57952 9.98 3.64952 10 3.72952 10C4.59952 10 5.38952 9.64 5.96952 9.05C6.56952 9.65 7.36952 10 8.27952 10C9.14952 10 9.92952 9.64 10.5095 9.07C11.0995 9.64 11.8995 10 12.7995 10C13.6395 10 14.4395 9.65 15.0395 9.05C15.6195 9.64 16.4095 10 17.2795 10C17.3595 10 17.4295 9.98 17.5095 9.97V16H3.49952Z" fill="black"/>
</svg>
