<svg fill="none" height="20" width="132" xmlns="http://www.w3.org/2000/svg" xmlns:xlink="http://www.w3.org/1999/xlink"><radialGradient id="a" cx="0" cy="0" gradientTransform="matrix(2.2779 0 0 2.2793 17.255 7.331)" gradientUnits="userSpaceOnUse" r="1"><stop offset=".01" stop-color="#ffefe1"/><stop offset=".11" stop-color="#ffead8"/><stop offset=".28" stop-color="#fddcc0"/><stop offset=".49" stop-color="#fbc698"/><stop offset=".74" stop-color="#f8a761"/><stop offset="1" stop-color="#f58220"/></radialGradient><linearGradient id="b" gradientUnits="userSpaceOnUse" x1="53.935" x2="54.215" y1="15.019" y2="5.069"><stop offset="0" stop-color="#222357"/><stop offset="1" stop-color="#254aa5"/></linearGradient><clipPath id="c"><path d="m0 0h31.25v20h-31.25z" transform="translate(.893)"/></clipPath><clipPath id="d"><path d="m0 0h30v9.727h-30z" transform="translate(40.143 5.137)"/></clipPath><clipPath id="e"><path d="m0 0h20v20h-20z" transform="translate(78.143)"/></clipPath><clipPath id="f"><path d="m0 0h25.857v20h-25.857z" transform="translate(106.143)"/></clipPath><g clip-path="url(#c)"><path d="m1.006.116 31.024-.003v19.773l-31.023.001z" fill="#fff"/><path d="m32.03 0h-31.138v20h31.25v-20h-.114zm-.11.226v19.547h-30.8v-19.546h30.8z" fill="#231f20"/><path d="m31.915 11.11s-8.475 5.983-23.999 8.66h24v-8.66z" fill="#f58220"/><path d="m17.258 5.078c-1.273 0-2.307.996-2.307 2.224 0 1.307.988 2.283 2.306 2.283 1.286 0 2.301-.99 2.301-2.257s-1.008-2.25-2.3-2.25z" fill="url(#a)"/><path d="m4.164 5.156h-1.24v4.328h1.233c.655 0 1.128-.155 1.544-.502a2.179 2.179 0 0 0 .785-1.663c0-1.274-.954-2.163-2.322-2.163zm.987 3.25c-.268.241-.61.345-1.156.345h-.227v-2.861h.227c.545 0 .875.098 1.156.35a1.452 1.452 0 0 1 .465 1.077 1.484 1.484 0 0 1 -.465 1.09zm2.565-3.25h-.843v4.328h.843zm2.064 1.662c-.503-.188-.656-.312-.656-.545 0-.272.265-.48.629-.48.251 0 .46.104.682.35l.44-.577a1.889 1.889 0 0 0 -1.271-.48c-.765 0-1.348.532-1.348 1.239 0 .597.272.902 1.063 1.189.203.062.4.145.586.246a.518.518 0 0 1 .252.447c0 .35-.28.61-.656.61a.999.999 0 0 1 -.921-.577l-.544.526c.388.57.855.824 1.498.824.876 0 1.491-.586 1.491-1.424 0-.685-.286-.997-1.245-1.348zm1.51.505c0 1.273 1 2.263 2.284 2.263.367 0 .73-.086 1.057-.252v-.998c-.335.335-.636.474-1.019.474-.85 0-1.453-.617-1.453-1.494 0-.83.623-1.485 1.415-1.485.4 0 .707.143 1.057.486v-.993a2.153 2.153 0 0 0 -1.038-.265 2.273 2.273 0 0 0 -2.303 2.264zm10.177.74-1.154-2.907h-.921l1.835 4.439h.454l1.869-4.439h-.915zm2.468 1.421h2.392v-.733h-1.55v-1.169h1.49v-.732h-1.49v-.96h1.55v-.734h-2.392zm5.728-3.05c0-.811-.557-1.278-1.531-1.278h-1.252v4.328h.844v-1.74h.11l1.167 1.74h1.039l-1.364-1.823c.637-.13.987-.565.987-1.228zm-1.694.714h-.245v-1.311h.256c.527 0 .813.22.813.642s-.283.67-.824.67z" fill="#001722"/><g fill="#231f20"><path d="m30.261 5.48c0-.076-.05-.117-.143-.117h-.124v.382h.09v-.149l.108.149h.112l-.127-.158a.104.104 0 0 0 .084-.106zm-.159.053h-.017v-.1h.018c.045 0 .068.017.068.048 0 .032-.024.052-.069.052z"/><path d="m30.137 5.219a.335.335 0 1 0 -.014.67.335.335 0 0 0 .014-.67zm0 .607a.273.273 0 1 1 .262-.274.27.27 0 0 1 -.263.274zm-19.655 4.799 1.13 1.183v-1.121h.16v1.513l-1.126-1.18v1.115h-.162z"/><path d="m10.47 10.624v1.523h.192v-1.09l1.128 1.181v-1.567h-.19v1.098l-1.128-1.183v.038zm.03.037 1.13 1.184v-1.145h.13v1.461l-1.128-1.181v1.139h-.131v-1.459zm2.057.023h.753v.149h-.586v.43h.571v.15h-.57v.569h.585v.15h-.753z"/><path d="m13.306 10.67h-.765v1.476h.78v-.18h-.586v-.539h.572v-.178h-.572v-.4h.587v-.181l-.015.002zm-.015.029v.12h-.586v.46h.572v.12h-.572v.599h.586v.12h-.716v-1.419zm1.155 1.437h-.161v-1.3h-.35v-.149h.864v.15h-.353z"/><path d="m14.8 10.672h-.88v.18h.35v1.296h.19v-1.296h.354v-.18zm-.016.03v.119h-.353v1.299h-.13v-1.3h-.35v-.12h.833zm1.09 1.068.467-1.16.468 1.16.38-1.085h.175l-.555 1.522-.468-1.166-.468 1.166-.555-1.522h.175z"/><path d="m16.334 10.605-.454 1.123-.37-1.057h-.207l.576 1.58.468-1.168.469 1.168.576-1.58h-.21l-.37 1.057-.467-1.158zm-.442 1.173.453-1.126c.027.064.47 1.162.47 1.162l.39-1.114h.145c-.013.039-.508 1.396-.534 1.467l-.47-1.165-.469 1.165c-.024-.07-.518-1.425-.532-1.467h.141l.39 1.114zm3.559-.368a.754.754 0 1 1 -1.51 0 .754.754 0 0 1 1.51 0zm-1.348 0a.594.594 0 1 0 .172-.424.598.598 0 0 0 -.175.422z"/><path d="m17.928 11.41a.77.77 0 1 0 1.54.009.77.77 0 0 0 -1.54-.009zm.03 0a.742.742 0 0 1 1.26-.536.742.742 0 0 1 -1.041 1.055.739.739 0 0 1 -.22-.519z"/><path d="m18.092 11.41a.61.61 0 0 0 1.04.424.61.61 0 0 0 -.431-1.037.61.61 0 0 0 -.61.613zm.03 0a.578.578 0 1 1 1.156.016.578.578 0 0 1 -1.155-.016zm2.193.726h-.16v-1.448h.21c.275 0 .53.072.53.398a.379.379 0 0 1 -.362.4l.46.65h-.2l-.438-.636h-.04zm0-.779h.05c.183 0 .367-.034.367-.259 0-.237-.175-.261-.368-.261h-.048v.52z"/><path d="m20.154 10.67h-.015v1.476h.19v-.636h.026c0 .011.425.63.425.63l.21.006h.03l-.465-.655a.39.39 0 0 0 .352-.41c0-.278-.178-.413-.545-.413zm.208.029c.351 0 .515.122.515.385a.365.365 0 0 1 -.349.384h-.027l.46.647h-.167c0-.012-.426-.63-.426-.63l-.052-.006h-.015v.636h-.131v-1.415h.192z"/><path d="m20.31 10.82h-.015v.55h.065c.179 0 .382-.03.382-.273 0-.256-.198-.277-.383-.277zm.048.031c.186 0 .353.019.353.246 0 .214-.177.244-.352.244h-.034v-.49zm2.092-.164h.217l-.679.675.702.774h-.223l-.595-.665-.04.04v.625h-.162v-1.448h.162v.623l.618-.623z"/><path d="m22.663 10.67h-.222s-.549.55-.596.599v-.6h-.19v1.477h.19v-.638a.127.127 0 0 0 .024-.02l.587.653.233.005h.035l-.717-.788c.022-.02.696-.69.696-.69zm-.036.029-.665.66.69.759h-.189c0-.009-.582-.66-.582-.66l-.01-.012-.052.052-.004.62h-.13v-1.419h.13v.643l.637-.643z"/></g></g><g clip-path="url(#d)"><path d="m55.658 8.234c-.017 1.35 1.203 2.102 2.121 2.55.944.46 1.261.754 1.258 1.165-.007.629-.753.906-1.451.917-1.218.019-1.926-.329-2.49-.592l-.438 2.053c.565.26 1.61.487 2.695.497 2.546 0 4.212-1.256 4.22-3.205.01-2.473-3.42-2.61-3.396-3.715.008-.335.328-.693 1.028-.784.347-.046 1.305-.08 2.39.42l.426-1.987a6.496 6.496 0 0 0 -2.268-.416c-2.396 0-4.082 1.273-4.095 3.097zm10.458-2.926c-.465 0-.857.27-1.032.687l-3.636 8.683h2.544l.506-1.399h3.109l.293 1.4h2.243l-1.957-9.371zm.356 2.531.734 3.519h-2.01zm-13.899-2.531-2.005 9.37h2.424l2.005-9.37zm-3.586 0-2.523 6.378-1.02-5.423c-.12-.606-.594-.955-1.119-.955h-4.125l-.057.272c.846.183 1.809.48 2.391.797.357.194.459.363.576.823l1.933 7.478h2.562l3.928-9.37z" fill="url(#b)"/></g><g clip-path="url(#e)" clip-rule="evenodd" fill-rule="evenodd"><path d="m78.143 0h20v20h-20z" fill="#016fd0"/><path d="m82.025 13.937v-3.14h3.325l.357.464.368-.464h12.068v2.923c-.204.13-.439.205-.68.217h-6.683l-.402-.492v.495h-1.318v-.844a1.11 1.11 0 0 1 -.57.117h-.445v.727h-2l-.356-.475-.361.475-3.304-.003zm-3.882-5.507.75-1.747h1.296l.426.979v-.98h1.61l.254.708.246-.707h7.235v.355c.283-.233.64-.359 1.006-.355l2.347.007.418.967v-.974h1.35l.37.555v-.555h1.358v3.14h-1.358l-.355-.556v.556h-1.982l-.194-.496h-.533l-.195.496h-1.345a1.326 1.326 0 0 1 -.881-.35v.35h-2.032l-.403-.496v.496h-7.534l-.199-.496h-.531l-.198.496h-.926z" fill="#fff"/><path d="m79.158 7.07-1.015 2.351h.666l.187-.47h1.084l.186.47h.673l-1.019-2.35h-.762zm.373.548.334.822h-.667l.334-.822zm1.475 1.803v-2.35l.935.003.545 1.515.531-1.519h.928v2.351h-.588v-1.731l-.622 1.732h-.516l-.625-1.732v1.732h-.588zm3.34 0v-2.35h1.919v.525h-1.325v.402h1.294v.496h-1.294v.417h1.325v.51h-1.92zm2.257-2.35v2.35h.588v-.834h.248l.705.834h.717l-.778-.865a.717.717 0 0 0 .646-.722c0-.495-.389-.764-.822-.764h-1.303zm.588.526h.672a.269.269 0 0 1 .278.247.266.266 0 0 1 -.27.247h-.68zm2.384 1.824h-.6v-2.35h.6zm1.42 0h-.13c-.626 0-1.008-.493-1.008-1.165 0-.689.377-1.186 1.168-1.186h.65v.556h-.673c-.321 0-.549.251-.549.634 0 .456.26.647.634.647h.155l-.248.513v.001zm1.28-2.35-1.011 2.35h.656l.187-.47h1.085l.185.47h.673l-1.01-2.35h-.764zm.374.547.334.822h-.667zm1.474 1.803v-2.35h.747l.954 1.476v-1.477h.588v2.351h-.723l-.98-1.515v1.514h-.586zm-11.695 4.114v-2.351h1.918v.525h-1.324v.402h1.293v.496h-1.293v.418h1.323v.51zm9.398 0v-2.351h1.918v.525h-1.325v.402h1.287v.496h-1.286v.418h1.325v.51h-1.918zm-7.407 0 .934-1.161-.956-1.19h.74l.57.735.57-.735h.713l-.944 1.175.936 1.176h-.741l-.552-.725-.54.725zm2.634-2.351v2.35h.603v-.742h.618c.524 0 .921-.277.921-.817 0-.445-.311-.791-.844-.791zm.603.532h.651a.266.266 0 0 1 .29.27.272.272 0 0 1 -.292.27h-.649zm1.795-.532v2.35h.588v-.834h.248l.704.836h.72l-.779-.867a.715.715 0 0 0 .645-.722c0-.495-.388-.762-.821-.762h-1.306zm.588.525h.672a.27.27 0 0 1 .28.248.266.266 0 0 1 -.27.248h-.682zm3.979 1.826v-.51h1.177c.173 0 .248-.095.248-.198s-.075-.199-.248-.199h-.533c-.462 0-.719-.281-.719-.704 0-.377.236-.74.923-.74h1.144l-.248.529h-.99c-.189 0-.248.098-.248.194a.204.204 0 0 0 .217.204h.556c.514 0 .737.293.737.676 0 .411-.248.748-.766.748zm2.156 0v-.51h1.127c.174 0 .25-.095.25-.198s-.076-.199-.25-.199h-.481c-.463 0-.72-.281-.72-.704 0-.377.235-.74.922-.74h1.122l-.248.529h-.966c-.19 0-.248.098-.248.194a.204.204 0 0 0 .222.204h.507c.515 0 .739.293.739.676 0 .411-.25.748-.767.748z" fill="#016fd0"/></g><g clip-path="url(#f)"><path d="m110.829 19.956v-1.326c0-.508-.31-.84-.843-.84-.267 0-.557.087-.756.376-.155-.242-.378-.376-.711-.376a.718.718 0 0 0 -.622.309v-.266h-.465v2.124h.465v-1.173c0-.376.2-.554.51-.554.311 0 .466.199.466.554v1.173h.466v-1.173c0-.376.222-.554.51-.554.31 0 .465.199.465.554v1.173h.515zm6.91-2.124h-.756v-.641h-.466v.641h-.421v.42h.421v.975c0 .487.2.773.733.773.199 0 .422-.067.577-.155l-.135-.4a.747.747 0 0 1 -.401.112c-.222 0-.31-.134-.31-.354v-.95h.755v-.42h.003zm3.954-.046a.63.63 0 0 0 -.556.31v-.266h-.466v2.123h.466v-1.195c0-.353.155-.555.445-.555.088 0 .199.024.289.044l.135-.443c-.093-.018-.225-.018-.313-.018zm-5.975.222c-.223-.155-.533-.222-.867-.222-.533 0-.888.265-.888.686 0 .353.267.554.733.618l.222.023c.243.044.378.111.378.222 0 .155-.179.265-.489.265a1.23 1.23 0 0 1 -.712-.221l-.222.353c.243.178.577.265.911.265.621 0 .978-.288.978-.685 0-.377-.29-.575-.733-.642l-.222-.023c-.199-.023-.355-.067-.355-.199 0-.154.156-.242.401-.242.267 0 .533.11.668.178zm12.393-.222a.633.633 0 0 0 -.557.31v-.266h-.466v2.123h.466v-1.195c0-.353.156-.555.445-.555.088 0 .2.024.29.044l.135-.438c-.091-.023-.223-.023-.313-.023zm-5.952 1.108c0 .642.445 1.106 1.133 1.106.311 0 .533-.067.756-.242l-.223-.377a.89.89 0 0 1 -.556.199c-.378 0-.644-.266-.644-.686 0-.4.266-.665.644-.685.199 0 .378.067.556.198l.223-.376c-.223-.178-.445-.242-.756-.242-.688-.003-1.133.463-1.133 1.105zm4.308 0v-1.062h-.465v.266a.807.807 0 0 0 -.668-.31c-.6 0-1.066.465-1.066 1.106 0 .642.466 1.106 1.066 1.106.31 0 .533-.11.668-.31v.266h.465zm-1.71 0c0-.376.243-.685.644-.685.378 0 .645.288.645.685 0 .377-.267.686-.645.686-.398-.023-.644-.312-.644-.686zm-5.574-1.108c-.621 0-1.066.443-1.066 1.106 0 .665.445 1.105 1.089 1.105.311 0 .621-.087.867-.288l-.223-.333a1.06 1.06 0 0 1 -.621.222c-.289 0-.577-.134-.644-.508h1.576v-.178c.021-.683-.38-1.126-.978-1.126zm0 .4c.29 0 .489.177.533.507h-1.11c.044-.286.243-.508.577-.508zm11.572.708v-1.902h-.465v1.106a.807.807 0 0 0 -.668-.31c-.6 0-1.066.465-1.066 1.106 0 .642.466 1.106 1.066 1.106.31 0 .533-.11.668-.31v.266h.465zm-1.71 0c0-.376.243-.685.644-.685.378 0 .645.288.645.685 0 .377-.267.686-.645.686-.401-.023-.644-.312-.644-.686zm-15.594 0v-1.062h-.466v.266a.806.806 0 0 0 -.668-.31c-.6 0-1.066.465-1.066 1.106 0 .642.466 1.106 1.066 1.106.311 0 .533-.11.668-.31v.266h.466zm-1.731 0c0-.376.243-.685.644-.685.378 0 .644.288.644.685 0 .377-.266.686-.644.686-.401-.023-.644-.312-.644-.686z" fill="#000"/><path d="m122.558 1.703h-6.997v12.52h6.997v-12.519z" fill="#ff5a00"/><path d="m116.028 7.964a7.976 7.976 0 0 1 3.043-6.26 7.972 7.972 0 0 0 -4.932-1.704c-4.42 0-7.996 3.562-7.996 7.964s3.576 7.964 7.996 7.964a7.972 7.972 0 0 0 4.932-1.704 7.936 7.936 0 0 1 -3.043-6.26z" fill="#eb001b"/><path d="m131.997 7.964c0 4.402-3.576 7.964-7.996 7.964a7.975 7.975 0 0 1 -4.933-1.704 7.909 7.909 0 0 0 3.044-6.26 7.974 7.974 0 0 0 -3.044-6.26 7.962 7.962 0 0 1 4.93-1.704c4.423 0 7.999 3.585 7.999 7.964z" fill="#f79e1b"/></g></svg>