<svg width="94" height="22" viewBox="0 0 94 22" fill="none" xmlns="http://www.w3.org/2000/svg">
    <g clip-path="url(#clip0_9205_421765)">
        <path fill-rule="evenodd" clip-rule="evenodd" d="M8.20249 5.17969H14.6258C18.0745 5.17969 19.3728 6.86633 19.1722 9.34423C18.8406 13.4351 16.2805 15.6984 12.8848 15.6984H11.1704C10.7045 15.6984 10.3911 15.9963 10.2651 16.8036L9.53722 21.4967C9.48914 21.801 9.32334 21.9772 9.07463 22.0012H5.03893C4.65923 22.0012 4.52493 21.7209 4.62441 21.1139L7.08496 6.06866C7.18113 5.4664 7.52269 5.17969 8.20249 5.17969Z" fill="#009EE3"/>
        <path fill-rule="evenodd" clip-rule="evenodd" d="M36.0894 4.89844C38.2565 4.89844 40.2561 6.03408 39.9825 8.86437C39.6509 12.228 37.7856 14.0893 34.8426 14.0973H32.2709C31.9012 14.0973 31.7221 14.3888 31.6259 14.9862L31.1285 18.0408C31.0539 18.5021 30.8085 18.7295 30.4471 18.7295H28.0545C27.6731 18.7295 27.5405 18.4941 27.625 17.9671L29.5998 5.72494C29.6976 5.12268 29.9314 4.89844 30.3575 4.89844H36.0844H36.0894ZM32.193 11.4528H34.1412C35.3599 11.4079 36.169 10.5926 36.2502 9.12224C36.3 8.21405 35.6649 7.56374 34.6552 7.56855L32.8214 7.57656L32.193 11.4528ZM46.4871 17.7925C46.7059 17.6003 46.9281 17.501 46.8966 17.738L46.8187 18.3051C46.7789 18.6014 46.8999 18.7584 47.1851 18.7584H49.3107C49.6689 18.7584 49.843 18.619 49.9308 18.084L51.2407 10.1426C51.307 9.74372 51.2059 9.54831 50.8925 9.54831H48.5547C48.3441 9.54831 48.2413 9.66203 48.1866 9.97277L48.1003 10.4613C48.0556 10.716 47.9345 10.7608 47.8218 10.5046C47.4255 9.59796 46.4141 9.19112 45.0031 9.22316C41.7251 9.28883 39.5149 11.693 39.2778 14.7748C39.0955 17.1582 40.8629 19.0307 43.1942 19.0307C44.8854 19.0307 45.6415 18.5501 46.4937 17.7973L46.4871 17.7925ZM44.7063 16.5704C43.2953 16.5704 42.3121 15.4828 42.516 14.1501C42.72 12.8175 44.0398 11.7299 45.4508 11.7299C46.8618 11.7299 47.845 12.8175 47.6411 14.1501C47.4371 15.4828 46.119 16.5704 44.7063 16.5704ZM55.4007 9.52268H53.2453C52.8009 9.52268 52.6202 9.84303 52.7611 10.2371L55.4372 17.8069L52.8125 21.4092C52.592 21.7104 52.7628 21.9843 53.0728 21.9843H55.4953C55.6364 22 55.7793 21.9763 55.9069 21.9158C56.0345 21.8553 56.1414 21.7606 56.2149 21.6431L64.4454 10.2387C64.6991 9.88788 64.5797 9.51948 64.1636 9.51948H61.8705C61.4775 9.51948 61.32 9.67004 61.0945 9.98559L57.6623 14.7908L56.1286 9.97437C56.0391 9.68286 55.8153 9.52268 55.4024 9.52268H55.4007Z" fill="#113984"/>
        <path fill-rule="evenodd" clip-rule="evenodd" d="M73.0077 4.90164C75.1747 4.90164 77.1744 6.03728 76.9008 8.86757C76.5692 12.2312 74.7039 14.0925 71.7608 14.1005H69.1908C68.8211 14.1005 68.642 14.392 68.5459 14.9894L68.0484 18.044C67.9738 18.5053 67.7284 18.7327 67.367 18.7327H64.9744C64.593 18.7327 64.4604 18.4973 64.545 17.9703L66.523 5.72494C66.6209 5.12268 66.8546 4.89844 67.2808 4.89844H73.0077V4.90164ZM69.1112 11.456H71.0595C72.2781 11.4111 73.0873 10.5959 73.1685 9.12545C73.2182 8.21726 72.5832 7.56695 71.5735 7.57175L69.7397 7.57977L69.1112 11.456ZM83.4053 17.7957C83.6242 17.6035 83.8464 17.5042 83.8149 17.7413L83.7369 18.3083C83.6971 18.6046 83.8182 18.7616 84.1034 18.7616H86.229C86.5871 18.7616 86.7612 18.6222 86.8491 18.0872L88.159 10.1458C88.2253 9.74693 88.1241 9.55152 87.8108 9.55152H85.4762C85.2657 9.55152 85.1629 9.66524 85.1081 9.97598L85.0219 10.4645C84.9772 10.7192 84.8561 10.764 84.7434 10.5078C84.3471 9.60117 83.3357 9.19433 81.9247 9.22636C78.6467 9.29203 76.4365 11.6963 76.1994 14.778C76.017 17.1614 77.7845 19.0339 80.1157 19.0339C81.807 19.0339 82.563 18.5533 83.4153 17.8005L83.4053 17.7957ZM81.6262 16.5736C80.2152 16.5736 79.232 15.486 79.4359 14.1533C79.6399 12.8207 80.9597 11.7331 82.3707 11.7331C83.7817 11.7331 84.7649 12.8207 84.561 14.1533C84.357 15.486 83.0372 16.5736 81.6262 16.5736ZM91.4303 18.7744H88.9764C88.9337 18.7762 88.8911 18.7689 88.8517 18.753C88.8123 18.7372 88.7769 18.713 88.7483 18.6824C88.7196 18.6518 88.6983 18.6155 88.6858 18.576C88.6734 18.5365 88.6701 18.4949 88.6763 18.454L90.8317 5.26204C90.8523 5.172 90.9038 5.09135 90.9779 5.03318C91.0519 4.97502 91.1442 4.94277 91.2396 4.94169H93.6935C93.7362 4.93984 93.7788 4.94713 93.8182 4.96302C93.8577 4.97891 93.893 5.00302 93.9216 5.03362C93.9503 5.06423 93.9716 5.10057 93.9841 5.14005C93.9965 5.17954 93.9998 5.22119 93.9936 5.26204L91.8382 18.454C91.8183 18.5447 91.767 18.626 91.6929 18.6848C91.6188 18.7436 91.5262 18.7763 91.4303 18.7776V18.7744Z" fill="#009EE3"/>
        <path fill-rule="evenodd" clip-rule="evenodd" d="M4.18465 0H10.6146C12.4252 0 14.574 0.0560611 16.0099 1.2814C16.9699 2.09989 17.4739 3.40211 17.3579 4.80524C16.9633 9.54802 14.0269 12.2053 10.0873 12.2053H6.91712C6.37659 12.2053 6.02011 12.5513 5.86757 13.4867L4.98217 18.9326C4.92414 19.285 4.76662 19.4933 4.48475 19.5189H0.517034C0.0776499 19.5189 -0.0782086 19.1985 0.0361971 18.4906L2.88805 1.03473C3.00245 0.333162 3.40205 0 4.18465 0Z" fill="#113984"/>
        <path fill-rule="evenodd" clip-rule="evenodd" d="M5.96094 12.933L7.08344 6.06636C7.18127 5.4641 7.52282 5.17578 8.20263 5.17578H14.6259C15.6887 5.17578 16.5493 5.33596 17.2224 5.63228C16.5775 9.85449 13.7505 12.1994 10.0497 12.1994H6.88447C6.46001 12.201 6.1483 12.4061 5.96094 12.933Z" fill="#172C70"/>
    </g>
    <defs>
        <clipPath id="clip0_9205_421765">
            <rect width="94" height="22" fill="white"/>
        </clipPath>
    </defs>
</svg>